M48
;DRILL file {KiCad 4.0.2-1.fc23-product} date Tue 29 Mar 2016 15:33:20 SAST
;FORMAT={-:-/ absolute / metric / decimal}
FMAT,2
METRIC,TZ
T1C0.400
T2C1.100
%
G90
G05
M71
T1
X122.111Y-86.286
X122.111Y-97.915
X128.349Y-91.079
X131.023Y-87.006
X133.424Y-92.858
X133.603Y-96.699
X133.624Y-104.385
X134.764Y-103.158
X137.228Y-110.49
X137.356Y-101.981
X137.695Y-88.476
X138.071Y-101.278
X138.071Y-108.439
X138.152Y-90.114
X139.443Y-99.219
X139.468Y-100.605
X140.32Y-87.905
X140.869Y-99.668
X143.325Y-97.205
X143.434Y-90.747
X143.831Y-98.699
X145.245Y-93.564
X145.646Y-89.189
X145.646Y-92.074
X145.86Y-88.251
X148.076Y-89.544
X148.076Y-90.795
X148.465Y-99.698
X149.489Y-94.062
X151.699Y-95.082
X153.714Y-89.476
T2
X119.38Y-89.71
X119.38Y-92.71
T0
M30
