G04 #@! TF.FileFunction,Legend,Top*
%FSLAX46Y46*%
G04 Gerber Fmt 4.6, Leading zero omitted, Abs format (unit mm)*
G04 Created by KiCad (PCBNEW 4.0.2-1.fc23-product) date Tue 29 Mar 2016 15:32:59 SAST*
%MOMM*%
G01*
G04 APERTURE LIST*
%ADD10C,0.100000*%
%ADD11C,0.150000*%
%ADD12C,0.300000*%
%ADD13C,0.400000*%
%ADD14C,0.050000*%
%ADD15C,0.062500*%
G04 APERTURE END LIST*
D10*
D11*
X159400000Y-171900000D02*
X159400000Y-203900000D01*
X267400000Y-203900000D01*
X267400000Y-171900000D01*
X159400000Y-171900000D01*
D10*
D11*
X10000000Y-10000000D02*
X10000000Y-205900000D01*
X269400000Y-205900000D01*
X269400000Y-10000000D01*
X10000000Y-10000000D01*
D10*
D11*
X12000000Y-12000000D02*
X12000000Y-203900000D01*
X267400000Y-203900000D01*
X267400000Y-12000000D01*
X12000000Y-12000000D01*
D10*
D11*
X60000000Y-12000000D02*
X60000000Y-10000000D01*
D10*
D11*
X110000000Y-12000000D02*
X110000000Y-10000000D01*
D10*
D11*
X160000000Y-12000000D02*
X160000000Y-10000000D01*
D10*
D11*
X210000000Y-12000000D02*
X210000000Y-10000000D01*
D10*
D11*
X260000000Y-12000000D02*
X260000000Y-10000000D01*
D10*
D11*
X35990476Y-11588095D02*
X35247619Y-11588095D01*
X35619048Y-11588095D02*
X35619048Y-10288095D01*
X35495238Y-10473810D01*
X35371429Y-10597619D01*
X35247619Y-10659524D01*
D10*
D11*
X85247619Y-10411905D02*
X85309524Y-10350000D01*
X85433333Y-10288095D01*
X85742857Y-10288095D01*
X85866667Y-10350000D01*
X85928571Y-10411905D01*
X85990476Y-10535714D01*
X85990476Y-10659524D01*
X85928571Y-10845238D01*
X85185714Y-11588095D01*
X85990476Y-11588095D01*
D10*
D11*
X135185714Y-10288095D02*
X135990476Y-10288095D01*
X135557143Y-10783333D01*
X135742857Y-10783333D01*
X135866667Y-10845238D01*
X135928571Y-10907143D01*
X135990476Y-11030952D01*
X135990476Y-11340476D01*
X135928571Y-11464286D01*
X135866667Y-11526190D01*
X135742857Y-11588095D01*
X135371429Y-11588095D01*
X135247619Y-11526190D01*
X135185714Y-11464286D01*
D10*
D11*
X185866667Y-10721429D02*
X185866667Y-11588095D01*
X185557143Y-10226190D02*
X185247619Y-11154762D01*
X186052381Y-11154762D01*
D10*
D11*
X235928571Y-10288095D02*
X235309524Y-10288095D01*
X235247619Y-10907143D01*
X235309524Y-10845238D01*
X235433333Y-10783333D01*
X235742857Y-10783333D01*
X235866667Y-10845238D01*
X235928571Y-10907143D01*
X235990476Y-11030952D01*
X235990476Y-11340476D01*
X235928571Y-11464286D01*
X235866667Y-11526190D01*
X235742857Y-11588095D01*
X235433333Y-11588095D01*
X235309524Y-11526190D01*
X235247619Y-11464286D01*
D10*
D11*
X60000000Y-203900000D02*
X60000000Y-205900000D01*
D10*
D11*
X110000000Y-203900000D02*
X110000000Y-205900000D01*
D10*
D11*
X160000000Y-203900000D02*
X160000000Y-205900000D01*
D10*
D11*
X210000000Y-203900000D02*
X210000000Y-205900000D01*
D10*
D11*
X260000000Y-203900000D02*
X260000000Y-205900000D01*
D10*
D11*
X35990476Y-205488095D02*
X35247619Y-205488095D01*
X35619048Y-205488095D02*
X35619048Y-204188095D01*
X35495238Y-204373810D01*
X35371429Y-204497619D01*
X35247619Y-204559524D01*
D10*
D11*
X85247619Y-204311905D02*
X85309524Y-204250000D01*
X85433333Y-204188095D01*
X85742857Y-204188095D01*
X85866667Y-204250000D01*
X85928571Y-204311905D01*
X85990476Y-204435714D01*
X85990476Y-204559524D01*
X85928571Y-204745238D01*
X85185714Y-205488095D01*
X85990476Y-205488095D01*
D10*
D11*
X135185714Y-204188095D02*
X135990476Y-204188095D01*
X135557143Y-204683333D01*
X135742857Y-204683333D01*
X135866667Y-204745238D01*
X135928571Y-204807143D01*
X135990476Y-204930952D01*
X135990476Y-205240476D01*
X135928571Y-205364286D01*
X135866667Y-205426190D01*
X135742857Y-205488095D01*
X135371429Y-205488095D01*
X135247619Y-205426190D01*
X135185714Y-205364286D01*
D10*
D11*
X185866667Y-204621429D02*
X185866667Y-205488095D01*
X185557143Y-204126190D02*
X185247619Y-205054762D01*
X186052381Y-205054762D01*
D10*
D11*
X235928571Y-204188095D02*
X235309524Y-204188095D01*
X235247619Y-204807143D01*
X235309524Y-204745238D01*
X235433333Y-204683333D01*
X235742857Y-204683333D01*
X235866667Y-204745238D01*
X235928571Y-204807143D01*
X235990476Y-204930952D01*
X235990476Y-205240476D01*
X235928571Y-205364286D01*
X235866667Y-205426190D01*
X235742857Y-205488095D01*
X235433333Y-205488095D01*
X235309524Y-205426190D01*
X235247619Y-205364286D01*
D10*
D11*
X10000000Y-60000000D02*
X12000000Y-60000000D01*
D10*
D11*
X10000000Y-110000000D02*
X12000000Y-110000000D01*
D10*
D11*
X10000000Y-160000000D02*
X12000000Y-160000000D01*
D10*
D11*
X10690476Y-35216667D02*
X11309524Y-35216667D01*
X10566667Y-35588095D02*
X11000000Y-34288095D01*
X11433333Y-35588095D01*
D10*
D11*
X11092857Y-84907143D02*
X11278571Y-84969048D01*
X11340476Y-85030952D01*
X11402381Y-85154762D01*
X11402381Y-85340476D01*
X11340476Y-85464286D01*
X11278571Y-85526190D01*
X11154762Y-85588095D01*
X10659524Y-85588095D01*
X10659524Y-84288095D01*
X11092857Y-84288095D01*
X11216667Y-84350000D01*
X11278571Y-84411905D01*
X11340476Y-84535714D01*
X11340476Y-84659524D01*
X11278571Y-84783333D01*
X11216667Y-84845238D01*
X11092857Y-84907143D01*
X10659524Y-84907143D01*
D10*
D11*
X11402381Y-135464286D02*
X11340476Y-135526190D01*
X11154762Y-135588095D01*
X11030952Y-135588095D01*
X10845238Y-135526190D01*
X10721429Y-135402381D01*
X10659524Y-135278571D01*
X10597619Y-135030952D01*
X10597619Y-134845238D01*
X10659524Y-134597619D01*
X10721429Y-134473810D01*
X10845238Y-134350000D01*
X11030952Y-134288095D01*
X11154762Y-134288095D01*
X11340476Y-134350000D01*
X11402381Y-134411905D01*
D10*
D11*
X10659524Y-185588095D02*
X10659524Y-184288095D01*
X10969048Y-184288095D01*
X11154762Y-184350000D01*
X11278571Y-184473810D01*
X11340476Y-184597619D01*
X11402381Y-184845238D01*
X11402381Y-185030952D01*
X11340476Y-185278571D01*
X11278571Y-185402381D01*
X11154762Y-185526190D01*
X10969048Y-185588095D01*
X10659524Y-185588095D01*
D10*
D11*
X269400000Y-60000000D02*
X267400000Y-60000000D01*
D10*
D11*
X269400000Y-110000000D02*
X267400000Y-110000000D01*
D10*
D11*
X269400000Y-160000000D02*
X267400000Y-160000000D01*
D10*
D11*
X268090476Y-35216667D02*
X268709524Y-35216667D01*
X267966667Y-35588095D02*
X268400000Y-34288095D01*
X268833333Y-35588095D01*
D10*
D11*
X268492857Y-84907143D02*
X268678571Y-84969048D01*
X268740476Y-85030952D01*
X268802381Y-85154762D01*
X268802381Y-85340476D01*
X268740476Y-85464286D01*
X268678571Y-85526190D01*
X268554762Y-85588095D01*
X268059524Y-85588095D01*
X268059524Y-84288095D01*
X268492857Y-84288095D01*
X268616667Y-84350000D01*
X268678571Y-84411905D01*
X268740476Y-84535714D01*
X268740476Y-84659524D01*
X268678571Y-84783333D01*
X268616667Y-84845238D01*
X268492857Y-84907143D01*
X268059524Y-84907143D01*
D10*
D11*
X268802381Y-135464286D02*
X268740476Y-135526190D01*
X268554762Y-135588095D01*
X268430952Y-135588095D01*
X268245238Y-135526190D01*
X268121429Y-135402381D01*
X268059524Y-135278571D01*
X267997619Y-135030952D01*
X267997619Y-134845238D01*
X268059524Y-134597619D01*
X268121429Y-134473810D01*
X268245238Y-134350000D01*
X268430952Y-134288095D01*
X268554762Y-134288095D01*
X268740476Y-134350000D01*
X268802381Y-134411905D01*
D10*
D11*
X268059524Y-185588095D02*
X268059524Y-184288095D01*
X268369048Y-184288095D01*
X268554762Y-184350000D01*
X268678571Y-184473810D01*
X268740476Y-184597619D01*
X268802381Y-184845238D01*
X268802381Y-185030952D01*
X268740476Y-185278571D01*
X268678571Y-185402381D01*
X268554762Y-185526190D01*
X268369048Y-185588095D01*
X268059524Y-185588095D01*
D10*
D11*
X182757143Y-199678571D02*
X182757143Y-198178571D01*
X183114286Y-198178571D01*
X183328571Y-198250000D01*
X183471429Y-198392857D01*
X183542857Y-198535714D01*
X183614286Y-198821429D01*
X183614286Y-199035714D01*
X183542857Y-199321429D01*
X183471429Y-199464286D01*
X183328571Y-199607143D01*
X183114286Y-199678571D01*
X182757143Y-199678571D01*
X184900000Y-199678571D02*
X184900000Y-198892857D01*
X184828571Y-198750000D01*
X184685714Y-198678571D01*
X184400000Y-198678571D01*
X184257143Y-198750000D01*
X184900000Y-199607143D02*
X184757143Y-199678571D01*
X184400000Y-199678571D01*
X184257143Y-199607143D01*
X184185714Y-199464286D01*
X184185714Y-199321429D01*
X184257143Y-199178571D01*
X184400000Y-199107143D01*
X184757143Y-199107143D01*
X184900000Y-199035714D01*
X185400000Y-198678571D02*
X185971429Y-198678571D01*
X185614286Y-198178571D02*
X185614286Y-199464286D01*
X185685714Y-199607143D01*
X185828572Y-199678571D01*
X185971429Y-199678571D01*
X187042857Y-199607143D02*
X186900000Y-199678571D01*
X186614286Y-199678571D01*
X186471429Y-199607143D01*
X186400000Y-199464286D01*
X186400000Y-198892857D01*
X186471429Y-198750000D01*
X186614286Y-198678571D01*
X186900000Y-198678571D01*
X187042857Y-198750000D01*
X187114286Y-198892857D01*
X187114286Y-199035714D01*
X186400000Y-199178571D01*
X187757143Y-199535714D02*
X187828571Y-199607143D01*
X187757143Y-199678571D01*
X187685714Y-199607143D01*
X187757143Y-199535714D01*
X187757143Y-199678571D01*
X187757143Y-198750000D02*
X187828571Y-198821429D01*
X187757143Y-198892857D01*
X187685714Y-198821429D01*
X187757143Y-198750000D01*
X187757143Y-198892857D01*
D10*
D11*
X159400000Y-200400000D02*
X267400000Y-200400000D01*
D10*
D11*
X160757143Y-202478571D02*
X160757143Y-200978571D01*
X161614286Y-202478571D02*
X160971429Y-201621429D01*
X161614286Y-200978571D02*
X160757143Y-201835714D01*
X162257143Y-202478571D02*
X162257143Y-201478571D01*
X162257143Y-200978571D02*
X162185714Y-201050000D01*
X162257143Y-201121429D01*
X162328571Y-201050000D01*
X162257143Y-200978571D01*
X162257143Y-201121429D01*
X163828572Y-202335714D02*
X163757143Y-202407143D01*
X163542857Y-202478571D01*
X163400000Y-202478571D01*
X163185715Y-202407143D01*
X163042857Y-202264286D01*
X162971429Y-202121429D01*
X162900000Y-201835714D01*
X162900000Y-201621429D01*
X162971429Y-201335714D01*
X163042857Y-201192857D01*
X163185715Y-201050000D01*
X163400000Y-200978571D01*
X163542857Y-200978571D01*
X163757143Y-201050000D01*
X163828572Y-201121429D01*
X165114286Y-202478571D02*
X165114286Y-201692857D01*
X165042857Y-201550000D01*
X164900000Y-201478571D01*
X164614286Y-201478571D01*
X164471429Y-201550000D01*
X165114286Y-202407143D02*
X164971429Y-202478571D01*
X164614286Y-202478571D01*
X164471429Y-202407143D01*
X164400000Y-202264286D01*
X164400000Y-202121429D01*
X164471429Y-201978571D01*
X164614286Y-201907143D01*
X164971429Y-201907143D01*
X165114286Y-201835714D01*
X166471429Y-202478571D02*
X166471429Y-200978571D01*
X166471429Y-202407143D02*
X166328572Y-202478571D01*
X166042858Y-202478571D01*
X165900000Y-202407143D01*
X165828572Y-202335714D01*
X165757143Y-202192857D01*
X165757143Y-201764286D01*
X165828572Y-201621429D01*
X165900000Y-201550000D01*
X166042858Y-201478571D01*
X166328572Y-201478571D01*
X166471429Y-201550000D01*
X168328572Y-201692857D02*
X168828572Y-201692857D01*
X169042858Y-202478571D02*
X168328572Y-202478571D01*
X168328572Y-200978571D01*
X169042858Y-200978571D01*
X169685715Y-202335714D02*
X169757143Y-202407143D01*
X169685715Y-202478571D01*
X169614286Y-202407143D01*
X169685715Y-202335714D01*
X169685715Y-202478571D01*
X170400001Y-202478571D02*
X170400001Y-200978571D01*
X170757144Y-200978571D01*
X170971429Y-201050000D01*
X171114287Y-201192857D01*
X171185715Y-201335714D01*
X171257144Y-201621429D01*
X171257144Y-201835714D01*
X171185715Y-202121429D01*
X171114287Y-202264286D01*
X170971429Y-202407143D01*
X170757144Y-202478571D01*
X170400001Y-202478571D01*
X171900001Y-202335714D02*
X171971429Y-202407143D01*
X171900001Y-202478571D01*
X171828572Y-202407143D01*
X171900001Y-202335714D01*
X171900001Y-202478571D01*
X172542858Y-202050000D02*
X173257144Y-202050000D01*
X172400001Y-202478571D02*
X172900001Y-200978571D01*
X173400001Y-202478571D01*
X173900001Y-202335714D02*
X173971429Y-202407143D01*
X173900001Y-202478571D01*
X173828572Y-202407143D01*
X173900001Y-202335714D01*
X173900001Y-202478571D01*
X176900001Y-202478571D02*
X176900001Y-200978571D01*
X177042858Y-201907143D02*
X177471429Y-202478571D01*
X177471429Y-201478571D02*
X176900001Y-202050000D01*
X178114287Y-202478571D02*
X178114287Y-201478571D01*
X178114287Y-200978571D02*
X178042858Y-201050000D01*
X178114287Y-201121429D01*
X178185715Y-201050000D01*
X178114287Y-200978571D01*
X178114287Y-201121429D01*
X179471430Y-202407143D02*
X179328573Y-202478571D01*
X179042859Y-202478571D01*
X178900001Y-202407143D01*
X178828573Y-202335714D01*
X178757144Y-202192857D01*
X178757144Y-201764286D01*
X178828573Y-201621429D01*
X178900001Y-201550000D01*
X179042859Y-201478571D01*
X179328573Y-201478571D01*
X179471430Y-201550000D01*
X180757144Y-202478571D02*
X180757144Y-201692857D01*
X180685715Y-201550000D01*
X180542858Y-201478571D01*
X180257144Y-201478571D01*
X180114287Y-201550000D01*
X180757144Y-202407143D02*
X180614287Y-202478571D01*
X180257144Y-202478571D01*
X180114287Y-202407143D01*
X180042858Y-202264286D01*
X180042858Y-202121429D01*
X180114287Y-201978571D01*
X180257144Y-201907143D01*
X180614287Y-201907143D01*
X180757144Y-201835714D01*
X182114287Y-202478571D02*
X182114287Y-200978571D01*
X182114287Y-202407143D02*
X181971430Y-202478571D01*
X181685716Y-202478571D01*
X181542858Y-202407143D01*
X181471430Y-202335714D01*
X181400001Y-202192857D01*
X181400001Y-201764286D01*
X181471430Y-201621429D01*
X181542858Y-201550000D01*
X181685716Y-201478571D01*
X181971430Y-201478571D01*
X182114287Y-201550000D01*
X184614287Y-201478571D02*
X184614287Y-202478571D01*
X184257144Y-200907143D02*
X183900001Y-201978571D01*
X184828573Y-201978571D01*
X185400001Y-202335714D02*
X185471429Y-202407143D01*
X185400001Y-202478571D01*
X185328572Y-202407143D01*
X185400001Y-202335714D01*
X185400001Y-202478571D01*
X186400001Y-200978571D02*
X186542858Y-200978571D01*
X186685715Y-201050000D01*
X186757144Y-201121429D01*
X186828573Y-201264286D01*
X186900001Y-201550000D01*
X186900001Y-201907143D01*
X186828573Y-202192857D01*
X186757144Y-202335714D01*
X186685715Y-202407143D01*
X186542858Y-202478571D01*
X186400001Y-202478571D01*
X186257144Y-202407143D01*
X186185715Y-202335714D01*
X186114287Y-202192857D01*
X186042858Y-201907143D01*
X186042858Y-201550000D01*
X186114287Y-201264286D01*
X186185715Y-201121429D01*
X186257144Y-201050000D01*
X186400001Y-200978571D01*
X187542858Y-202335714D02*
X187614286Y-202407143D01*
X187542858Y-202478571D01*
X187471429Y-202407143D01*
X187542858Y-202335714D01*
X187542858Y-202478571D01*
X188185715Y-201121429D02*
X188257144Y-201050000D01*
X188400001Y-200978571D01*
X188757144Y-200978571D01*
X188900001Y-201050000D01*
X188971430Y-201121429D01*
X189042858Y-201264286D01*
X189042858Y-201407143D01*
X188971430Y-201621429D01*
X188114287Y-202478571D01*
X189042858Y-202478571D01*
X189685715Y-201907143D02*
X190828572Y-201907143D01*
X192328572Y-202478571D02*
X191471429Y-202478571D01*
X191900001Y-202478571D02*
X191900001Y-200978571D01*
X191757144Y-201192857D01*
X191614286Y-201335714D01*
X191471429Y-201407143D01*
X192971429Y-202335714D02*
X193042857Y-202407143D01*
X192971429Y-202478571D01*
X192900000Y-202407143D01*
X192971429Y-202335714D01*
X192971429Y-202478571D01*
X193471429Y-201478571D02*
X194042858Y-201478571D01*
X193685715Y-202478571D02*
X193685715Y-201192857D01*
X193757143Y-201050000D01*
X193900001Y-200978571D01*
X194042858Y-200978571D01*
X195185715Y-202407143D02*
X195042858Y-202478571D01*
X194757144Y-202478571D01*
X194614286Y-202407143D01*
X194542858Y-202335714D01*
X194471429Y-202192857D01*
X194471429Y-201764286D01*
X194542858Y-201621429D01*
X194614286Y-201550000D01*
X194757144Y-201478571D01*
X195042858Y-201478571D01*
X195185715Y-201550000D01*
X195757143Y-201121429D02*
X195828572Y-201050000D01*
X195971429Y-200978571D01*
X196328572Y-200978571D01*
X196471429Y-201050000D01*
X196542858Y-201121429D01*
X196614286Y-201264286D01*
X196614286Y-201407143D01*
X196542858Y-201621429D01*
X195685715Y-202478571D01*
X196614286Y-202478571D01*
X197114286Y-200978571D02*
X198042857Y-200978571D01*
X197542857Y-201550000D01*
X197757143Y-201550000D01*
X197900000Y-201621429D01*
X197971429Y-201692857D01*
X198042857Y-201835714D01*
X198042857Y-202192857D01*
X197971429Y-202335714D01*
X197900000Y-202407143D01*
X197757143Y-202478571D01*
X197328571Y-202478571D01*
X197185714Y-202407143D01*
X197114286Y-202335714D01*
X198685714Y-201907143D02*
X199828571Y-201907143D01*
X200542857Y-201478571D02*
X200542857Y-202978571D01*
X200542857Y-201550000D02*
X200685714Y-201478571D01*
X200971428Y-201478571D01*
X201114285Y-201550000D01*
X201185714Y-201621429D01*
X201257143Y-201764286D01*
X201257143Y-202192857D01*
X201185714Y-202335714D01*
X201114285Y-202407143D01*
X200971428Y-202478571D01*
X200685714Y-202478571D01*
X200542857Y-202407143D01*
X201900000Y-202478571D02*
X201900000Y-201478571D01*
X201900000Y-201764286D02*
X201971428Y-201621429D01*
X202042857Y-201550000D01*
X202185714Y-201478571D01*
X202328571Y-201478571D01*
X203042857Y-202478571D02*
X202899999Y-202407143D01*
X202828571Y-202335714D01*
X202757142Y-202192857D01*
X202757142Y-201764286D01*
X202828571Y-201621429D01*
X202899999Y-201550000D01*
X203042857Y-201478571D01*
X203257142Y-201478571D01*
X203399999Y-201550000D01*
X203471428Y-201621429D01*
X203542857Y-201764286D01*
X203542857Y-202192857D01*
X203471428Y-202335714D01*
X203399999Y-202407143D01*
X203257142Y-202478571D01*
X203042857Y-202478571D01*
X204828571Y-202478571D02*
X204828571Y-200978571D01*
X204828571Y-202407143D02*
X204685714Y-202478571D01*
X204400000Y-202478571D01*
X204257142Y-202407143D01*
X204185714Y-202335714D01*
X204114285Y-202192857D01*
X204114285Y-201764286D01*
X204185714Y-201621429D01*
X204257142Y-201550000D01*
X204400000Y-201478571D01*
X204685714Y-201478571D01*
X204828571Y-201550000D01*
X206185714Y-201478571D02*
X206185714Y-202478571D01*
X205542857Y-201478571D02*
X205542857Y-202264286D01*
X205614285Y-202407143D01*
X205757143Y-202478571D01*
X205971428Y-202478571D01*
X206114285Y-202407143D01*
X206185714Y-202335714D01*
X207542857Y-202407143D02*
X207400000Y-202478571D01*
X207114286Y-202478571D01*
X206971428Y-202407143D01*
X206900000Y-202335714D01*
X206828571Y-202192857D01*
X206828571Y-201764286D01*
X206900000Y-201621429D01*
X206971428Y-201550000D01*
X207114286Y-201478571D01*
X207400000Y-201478571D01*
X207542857Y-201550000D01*
X207971428Y-201478571D02*
X208542857Y-201478571D01*
X208185714Y-200978571D02*
X208185714Y-202264286D01*
X208257142Y-202407143D01*
X208400000Y-202478571D01*
X208542857Y-202478571D01*
D10*
D11*
X159400000Y-197400000D02*
X267400000Y-197400000D01*
D10*
D12*
X246614286Y-199678571D02*
X246114286Y-198964286D01*
X245757143Y-199678571D02*
X245757143Y-198178571D01*
X246328571Y-198178571D01*
X246471429Y-198250000D01*
X246542857Y-198321429D01*
X246614286Y-198464286D01*
X246614286Y-198678571D01*
X246542857Y-198821429D01*
X246471429Y-198892857D01*
X246328571Y-198964286D01*
X245757143Y-198964286D01*
X247828571Y-199607143D02*
X247685714Y-199678571D01*
X247400000Y-199678571D01*
X247257143Y-199607143D01*
X247185714Y-199464286D01*
X247185714Y-198892857D01*
X247257143Y-198750000D01*
X247400000Y-198678571D01*
X247685714Y-198678571D01*
X247828571Y-198750000D01*
X247900000Y-198892857D01*
X247900000Y-199035714D01*
X247185714Y-199178571D01*
X248400000Y-198678571D02*
X248757143Y-199678571D01*
X249114285Y-198678571D01*
X249685714Y-199535714D02*
X249757142Y-199607143D01*
X249685714Y-199678571D01*
X249614285Y-199607143D01*
X249685714Y-199535714D01*
X249685714Y-199678571D01*
X249685714Y-198750000D02*
X249757142Y-198821429D01*
X249685714Y-198892857D01*
X249614285Y-198821429D01*
X249685714Y-198750000D01*
X249685714Y-198892857D01*
D10*
D11*
X160685714Y-199607143D02*
X160900000Y-199678571D01*
X161257143Y-199678571D01*
X161400000Y-199607143D01*
X161471429Y-199535714D01*
X161542857Y-199392857D01*
X161542857Y-199250000D01*
X161471429Y-199107143D01*
X161400000Y-199035714D01*
X161257143Y-198964286D01*
X160971429Y-198892857D01*
X160828571Y-198821429D01*
X160757143Y-198750000D01*
X160685714Y-198607143D01*
X160685714Y-198464286D01*
X160757143Y-198321429D01*
X160828571Y-198250000D01*
X160971429Y-198178571D01*
X161328571Y-198178571D01*
X161542857Y-198250000D01*
X162185714Y-199678571D02*
X162185714Y-198678571D01*
X162185714Y-198178571D02*
X162114285Y-198250000D01*
X162185714Y-198321429D01*
X162257142Y-198250000D01*
X162185714Y-198178571D01*
X162185714Y-198321429D01*
X162757143Y-198678571D02*
X163542857Y-198678571D01*
X162757143Y-199678571D01*
X163542857Y-199678571D01*
X164685714Y-199607143D02*
X164542857Y-199678571D01*
X164257143Y-199678571D01*
X164114286Y-199607143D01*
X164042857Y-199464286D01*
X164042857Y-198892857D01*
X164114286Y-198750000D01*
X164257143Y-198678571D01*
X164542857Y-198678571D01*
X164685714Y-198750000D01*
X164757143Y-198892857D01*
X164757143Y-199035714D01*
X164042857Y-199178571D01*
X165400000Y-199535714D02*
X165471428Y-199607143D01*
X165400000Y-199678571D01*
X165328571Y-199607143D01*
X165400000Y-199535714D01*
X165400000Y-199678571D01*
X165400000Y-198750000D02*
X165471428Y-198821429D01*
X165400000Y-198892857D01*
X165328571Y-198821429D01*
X165400000Y-198750000D01*
X165400000Y-198892857D01*
X167185714Y-199250000D02*
X167900000Y-199250000D01*
X167042857Y-199678571D02*
X167542857Y-198178571D01*
X168042857Y-199678571D01*
D10*
D11*
X245757143Y-202478571D02*
X245757143Y-200978571D01*
X247114286Y-202478571D02*
X247114286Y-200978571D01*
X247114286Y-202407143D02*
X246971429Y-202478571D01*
X246685715Y-202478571D01*
X246542857Y-202407143D01*
X246471429Y-202335714D01*
X246400000Y-202192857D01*
X246400000Y-201764286D01*
X246471429Y-201621429D01*
X246542857Y-201550000D01*
X246685715Y-201478571D01*
X246971429Y-201478571D01*
X247114286Y-201550000D01*
X247828572Y-202335714D02*
X247900000Y-202407143D01*
X247828572Y-202478571D01*
X247757143Y-202407143D01*
X247828572Y-202335714D01*
X247828572Y-202478571D01*
X247828572Y-201550000D02*
X247900000Y-201621429D01*
X247828572Y-201692857D01*
X247757143Y-201621429D01*
X247828572Y-201550000D01*
X247828572Y-201692857D01*
X250471429Y-202478571D02*
X249614286Y-202478571D01*
X250042858Y-202478571D02*
X250042858Y-200978571D01*
X249900001Y-201192857D01*
X249757143Y-201335714D01*
X249614286Y-201407143D01*
X252185714Y-200907143D02*
X250900000Y-202835714D01*
X253471429Y-202478571D02*
X252614286Y-202478571D01*
X253042858Y-202478571D02*
X253042858Y-200978571D01*
X252900001Y-201192857D01*
X252757143Y-201335714D01*
X252614286Y-201407143D01*
D10*
D11*
X159400000Y-193400000D02*
X267400000Y-193400000D01*
D10*
D13*
X160852381Y-194104762D02*
X161995238Y-194104762D01*
X161173810Y-196104762D02*
X161423810Y-194104762D01*
X162411905Y-196104762D02*
X162578571Y-194771429D01*
X162661905Y-194104762D02*
X162554762Y-194200000D01*
X162638095Y-194295238D01*
X162745239Y-194200000D01*
X162661905Y-194104762D01*
X162638095Y-194295238D01*
X163245238Y-194771429D02*
X164007143Y-194771429D01*
X163614286Y-194104762D02*
X163400000Y-195819048D01*
X163471430Y-196009524D01*
X163650001Y-196104762D01*
X163840477Y-196104762D01*
X164792858Y-196104762D02*
X164614287Y-196009524D01*
X164542857Y-195819048D01*
X164757143Y-194104762D01*
X166328572Y-196009524D02*
X166126191Y-196104762D01*
X165745239Y-196104762D01*
X165566667Y-196009524D01*
X165495238Y-195819048D01*
X165590476Y-195057143D01*
X165709524Y-194866667D01*
X165911905Y-194771429D01*
X166292857Y-194771429D01*
X166471429Y-194866667D01*
X166542857Y-195057143D01*
X166519048Y-195247619D01*
X165542857Y-195438095D01*
X167292857Y-195914286D02*
X167376192Y-196009524D01*
X167269048Y-196104762D01*
X167185715Y-196009524D01*
X167292857Y-195914286D01*
X167269048Y-196104762D01*
X167423810Y-194866667D02*
X167507144Y-194961905D01*
X167400000Y-195057143D01*
X167316667Y-194961905D01*
X167423810Y-194866667D01*
X167400000Y-195057143D01*
D10*
D11*
X161257143Y-191492857D02*
X160757143Y-191492857D01*
X160757143Y-192278571D02*
X160757143Y-190778571D01*
X161471429Y-190778571D01*
X162042857Y-192278571D02*
X162042857Y-191278571D01*
X162042857Y-190778571D02*
X161971428Y-190850000D01*
X162042857Y-190921429D01*
X162114285Y-190850000D01*
X162042857Y-190778571D01*
X162042857Y-190921429D01*
X162971429Y-192278571D02*
X162828571Y-192207143D01*
X162757143Y-192064286D01*
X162757143Y-190778571D01*
X164114285Y-192207143D02*
X163971428Y-192278571D01*
X163685714Y-192278571D01*
X163542857Y-192207143D01*
X163471428Y-192064286D01*
X163471428Y-191492857D01*
X163542857Y-191350000D01*
X163685714Y-191278571D01*
X163971428Y-191278571D01*
X164114285Y-191350000D01*
X164185714Y-191492857D01*
X164185714Y-191635714D01*
X163471428Y-191778571D01*
X164828571Y-192135714D02*
X164899999Y-192207143D01*
X164828571Y-192278571D01*
X164757142Y-192207143D01*
X164828571Y-192135714D01*
X164828571Y-192278571D01*
X164828571Y-191350000D02*
X164899999Y-191421429D01*
X164828571Y-191492857D01*
X164757142Y-191421429D01*
X164828571Y-191350000D01*
X164828571Y-191492857D01*
X166685714Y-191278571D02*
X166685714Y-192778571D01*
X166685714Y-191350000D02*
X166828571Y-191278571D01*
X167114285Y-191278571D01*
X167257142Y-191350000D01*
X167328571Y-191421429D01*
X167400000Y-191564286D01*
X167400000Y-191992857D01*
X167328571Y-192135714D01*
X167257142Y-192207143D01*
X167114285Y-192278571D01*
X166828571Y-192278571D01*
X166685714Y-192207143D01*
X168685714Y-192278571D02*
X168685714Y-191492857D01*
X168614285Y-191350000D01*
X168471428Y-191278571D01*
X168185714Y-191278571D01*
X168042857Y-191350000D01*
X168685714Y-192207143D02*
X168542857Y-192278571D01*
X168185714Y-192278571D01*
X168042857Y-192207143D01*
X167971428Y-192064286D01*
X167971428Y-191921429D01*
X168042857Y-191778571D01*
X168185714Y-191707143D01*
X168542857Y-191707143D01*
X168685714Y-191635714D01*
X169400000Y-192278571D02*
X169400000Y-191278571D01*
X169400000Y-191564286D02*
X169471428Y-191421429D01*
X169542857Y-191350000D01*
X169685714Y-191278571D01*
X169828571Y-191278571D01*
X170328571Y-192278571D02*
X170328571Y-190778571D01*
X170471428Y-191707143D02*
X170899999Y-192278571D01*
X170899999Y-191278571D02*
X170328571Y-191850000D01*
X171542857Y-192278571D02*
X171542857Y-191278571D01*
X171542857Y-190778571D02*
X171471428Y-190850000D01*
X171542857Y-190921429D01*
X171614285Y-190850000D01*
X171542857Y-190778571D01*
X171542857Y-190921429D01*
X172257143Y-191278571D02*
X172257143Y-192278571D01*
X172257143Y-191421429D02*
X172328571Y-191350000D01*
X172471429Y-191278571D01*
X172685714Y-191278571D01*
X172828571Y-191350000D01*
X172900000Y-191492857D01*
X172900000Y-192278571D01*
X174257143Y-191278571D02*
X174257143Y-192492857D01*
X174185714Y-192635714D01*
X174114286Y-192707143D01*
X173971429Y-192778571D01*
X173757143Y-192778571D01*
X173614286Y-192707143D01*
X174257143Y-192207143D02*
X174114286Y-192278571D01*
X173828572Y-192278571D01*
X173685714Y-192207143D01*
X173614286Y-192135714D01*
X173542857Y-191992857D01*
X173542857Y-191564286D01*
X173614286Y-191421429D01*
X173685714Y-191350000D01*
X173828572Y-191278571D01*
X174114286Y-191278571D01*
X174257143Y-191350000D01*
X174971429Y-191707143D02*
X176114286Y-191707143D01*
X176757143Y-192207143D02*
X176900000Y-192278571D01*
X177185715Y-192278571D01*
X177328572Y-192207143D01*
X177400000Y-192064286D01*
X177400000Y-191992857D01*
X177328572Y-191850000D01*
X177185715Y-191778571D01*
X176971429Y-191778571D01*
X176828572Y-191707143D01*
X176757143Y-191564286D01*
X176757143Y-191492857D01*
X176828572Y-191350000D01*
X176971429Y-191278571D01*
X177185715Y-191278571D01*
X177328572Y-191350000D01*
X177900001Y-191278571D02*
X178257144Y-192278571D01*
X178614286Y-191278571D02*
X178257144Y-192278571D01*
X178114286Y-192635714D01*
X178042858Y-192707143D01*
X177900001Y-192778571D01*
X179114286Y-192207143D02*
X179257143Y-192278571D01*
X179542858Y-192278571D01*
X179685715Y-192207143D01*
X179757143Y-192064286D01*
X179757143Y-191992857D01*
X179685715Y-191850000D01*
X179542858Y-191778571D01*
X179328572Y-191778571D01*
X179185715Y-191707143D01*
X179114286Y-191564286D01*
X179114286Y-191492857D01*
X179185715Y-191350000D01*
X179328572Y-191278571D01*
X179542858Y-191278571D01*
X179685715Y-191350000D01*
X180185715Y-191278571D02*
X180757144Y-191278571D01*
X180400001Y-190778571D02*
X180400001Y-192064286D01*
X180471429Y-192207143D01*
X180614287Y-192278571D01*
X180757144Y-192278571D01*
X181828572Y-192207143D02*
X181685715Y-192278571D01*
X181400001Y-192278571D01*
X181257144Y-192207143D01*
X181185715Y-192064286D01*
X181185715Y-191492857D01*
X181257144Y-191350000D01*
X181400001Y-191278571D01*
X181685715Y-191278571D01*
X181828572Y-191350000D01*
X181900001Y-191492857D01*
X181900001Y-191635714D01*
X181185715Y-191778571D01*
X182542858Y-192278571D02*
X182542858Y-191278571D01*
X182542858Y-191421429D02*
X182614286Y-191350000D01*
X182757144Y-191278571D01*
X182971429Y-191278571D01*
X183114286Y-191350000D01*
X183185715Y-191492857D01*
X183185715Y-192278571D01*
X183185715Y-191492857D02*
X183257144Y-191350000D01*
X183400001Y-191278571D01*
X183614286Y-191278571D01*
X183757144Y-191350000D01*
X183828572Y-191492857D01*
X183828572Y-192278571D01*
X184542858Y-192135714D02*
X184614286Y-192207143D01*
X184542858Y-192278571D01*
X184471429Y-192207143D01*
X184542858Y-192135714D01*
X184542858Y-192278571D01*
X185257144Y-192278571D02*
X185257144Y-190778571D01*
X185400001Y-191707143D02*
X185828572Y-192278571D01*
X185828572Y-191278571D02*
X185257144Y-191850000D01*
X186471430Y-192278571D02*
X186471430Y-191278571D01*
X186471430Y-190778571D02*
X186400001Y-190850000D01*
X186471430Y-190921429D01*
X186542858Y-190850000D01*
X186471430Y-190778571D01*
X186471430Y-190921429D01*
X187828573Y-192207143D02*
X187685716Y-192278571D01*
X187400002Y-192278571D01*
X187257144Y-192207143D01*
X187185716Y-192135714D01*
X187114287Y-191992857D01*
X187114287Y-191564286D01*
X187185716Y-191421429D01*
X187257144Y-191350000D01*
X187400002Y-191278571D01*
X187685716Y-191278571D01*
X187828573Y-191350000D01*
X189114287Y-192278571D02*
X189114287Y-191492857D01*
X189042858Y-191350000D01*
X188900001Y-191278571D01*
X188614287Y-191278571D01*
X188471430Y-191350000D01*
X189114287Y-192207143D02*
X188971430Y-192278571D01*
X188614287Y-192278571D01*
X188471430Y-192207143D01*
X188400001Y-192064286D01*
X188400001Y-191921429D01*
X188471430Y-191778571D01*
X188614287Y-191707143D01*
X188971430Y-191707143D01*
X189114287Y-191635714D01*
X190471430Y-192278571D02*
X190471430Y-190778571D01*
X190471430Y-192207143D02*
X190328573Y-192278571D01*
X190042859Y-192278571D01*
X189900001Y-192207143D01*
X189828573Y-192135714D01*
X189757144Y-191992857D01*
X189757144Y-191564286D01*
X189828573Y-191421429D01*
X189900001Y-191350000D01*
X190042859Y-191278571D01*
X190328573Y-191278571D01*
X190471430Y-191350000D01*
X190828573Y-192421429D02*
X191971430Y-192421429D01*
X192328573Y-191278571D02*
X192328573Y-192778571D01*
X192328573Y-191350000D02*
X192471430Y-191278571D01*
X192757144Y-191278571D01*
X192900001Y-191350000D01*
X192971430Y-191421429D01*
X193042859Y-191564286D01*
X193042859Y-191992857D01*
X192971430Y-192135714D01*
X192900001Y-192207143D01*
X192757144Y-192278571D01*
X192471430Y-192278571D01*
X192328573Y-192207143D01*
X194328573Y-192207143D02*
X194185716Y-192278571D01*
X193900002Y-192278571D01*
X193757144Y-192207143D01*
X193685716Y-192135714D01*
X193614287Y-191992857D01*
X193614287Y-191564286D01*
X193685716Y-191421429D01*
X193757144Y-191350000D01*
X193900002Y-191278571D01*
X194185716Y-191278571D01*
X194328573Y-191350000D01*
X194971430Y-192278571D02*
X194971430Y-190778571D01*
X194971430Y-191350000D02*
X195114287Y-191278571D01*
X195400001Y-191278571D01*
X195542858Y-191350000D01*
X195614287Y-191421429D01*
X195685716Y-191564286D01*
X195685716Y-191992857D01*
X195614287Y-192135714D01*
X195542858Y-192207143D01*
X195400001Y-192278571D01*
X195114287Y-192278571D01*
X194971430Y-192207143D01*
D10*
D11*
X159400000Y-187400000D02*
X267400000Y-187400000D01*
D10*
D11*
X160685714Y-189507143D02*
X160900000Y-189578571D01*
X161257143Y-189578571D01*
X161400000Y-189507143D01*
X161471429Y-189435714D01*
X161542857Y-189292857D01*
X161542857Y-189150000D01*
X161471429Y-189007143D01*
X161400000Y-188935714D01*
X161257143Y-188864286D01*
X160971429Y-188792857D01*
X160828571Y-188721429D01*
X160757143Y-188650000D01*
X160685714Y-188507143D01*
X160685714Y-188364286D01*
X160757143Y-188221429D01*
X160828571Y-188150000D01*
X160971429Y-188078571D01*
X161328571Y-188078571D01*
X161542857Y-188150000D01*
X162185714Y-189578571D02*
X162185714Y-188078571D01*
X162828571Y-189578571D02*
X162828571Y-188792857D01*
X162757142Y-188650000D01*
X162614285Y-188578571D01*
X162400000Y-188578571D01*
X162257142Y-188650000D01*
X162185714Y-188721429D01*
X164114285Y-189507143D02*
X163971428Y-189578571D01*
X163685714Y-189578571D01*
X163542857Y-189507143D01*
X163471428Y-189364286D01*
X163471428Y-188792857D01*
X163542857Y-188650000D01*
X163685714Y-188578571D01*
X163971428Y-188578571D01*
X164114285Y-188650000D01*
X164185714Y-188792857D01*
X164185714Y-188935714D01*
X163471428Y-189078571D01*
X165399999Y-189507143D02*
X165257142Y-189578571D01*
X164971428Y-189578571D01*
X164828571Y-189507143D01*
X164757142Y-189364286D01*
X164757142Y-188792857D01*
X164828571Y-188650000D01*
X164971428Y-188578571D01*
X165257142Y-188578571D01*
X165399999Y-188650000D01*
X165471428Y-188792857D01*
X165471428Y-188935714D01*
X164757142Y-189078571D01*
X165899999Y-188578571D02*
X166471428Y-188578571D01*
X166114285Y-188078571D02*
X166114285Y-189364286D01*
X166185713Y-189507143D01*
X166328571Y-189578571D01*
X166471428Y-189578571D01*
X166971428Y-189435714D02*
X167042856Y-189507143D01*
X166971428Y-189578571D01*
X166899999Y-189507143D01*
X166971428Y-189435714D01*
X166971428Y-189578571D01*
X166971428Y-188650000D02*
X167042856Y-188721429D01*
X166971428Y-188792857D01*
X166899999Y-188721429D01*
X166971428Y-188650000D01*
X166971428Y-188792857D01*
D10*
D11*
X179400000Y-197400000D02*
X179400000Y-200400000D01*
D10*
D11*
X243400000Y-197400000D02*
X243400000Y-203900000D01*
X144545000Y-81045000D02*
X144295000Y-81045000D01*
X144295000Y-80245000D02*
X144545000Y-80245000D01*
X144545000Y-83585000D02*
X144295000Y-83585000D01*
X144295000Y-82785000D02*
X144545000Y-82785000D01*
X130450000Y-88030000D02*
X130200000Y-88030000D01*
X130200000Y-87230000D02*
X130450000Y-87230000D01*
X146535000Y-93745000D02*
X146285000Y-93745000D01*
X146285000Y-92945000D02*
X146535000Y-92945000D01*
X130450000Y-89935000D02*
X130200000Y-89935000D01*
X130200000Y-89135000D02*
X130450000Y-89135000D01*
X149460000Y-92945000D02*
X149710000Y-92945000D01*
X149710000Y-93745000D02*
X149460000Y-93745000D01*
X126640000Y-89935000D02*
X126390000Y-89935000D01*
X126390000Y-89135000D02*
X126640000Y-89135000D01*
X126240000Y-91675000D02*
X126490000Y-91675000D01*
X126490000Y-92475000D02*
X126240000Y-92475000D01*
X130325000Y-94215000D02*
X130575000Y-94215000D01*
X130575000Y-95015000D02*
X130325000Y-95015000D01*
X149710000Y-91840000D02*
X149460000Y-91840000D01*
X149460000Y-91040000D02*
X149710000Y-91040000D01*
X126490000Y-95015000D02*
X126240000Y-95015000D01*
X126240000Y-94215000D02*
X126490000Y-94215000D01*
X130325000Y-96755000D02*
X130575000Y-96755000D01*
X130575000Y-97555000D02*
X130325000Y-97555000D01*
X126490000Y-97555000D02*
X126240000Y-97555000D01*
X126240000Y-96755000D02*
X126490000Y-96755000D01*
X126490000Y-100095000D02*
X126240000Y-100095000D01*
X126240000Y-99295000D02*
X126490000Y-99295000D01*
X134430000Y-103740000D02*
X134680000Y-103740000D01*
X134680000Y-104540000D02*
X134430000Y-104540000D01*
X138030000Y-110090000D02*
X138280000Y-110090000D01*
X138280000Y-110890000D02*
X138030000Y-110890000D01*
X138030000Y-108820000D02*
X138280000Y-108820000D01*
X138280000Y-109620000D02*
X138030000Y-109620000D01*
X142750000Y-104540000D02*
X142500000Y-104540000D01*
X142500000Y-103740000D02*
X142750000Y-103740000D01*
X142750000Y-102635000D02*
X142500000Y-102635000D01*
X142500000Y-101835000D02*
X142750000Y-101835000D01*
X138905000Y-102635000D02*
X138655000Y-102635000D01*
X138655000Y-101835000D02*
X138905000Y-101835000D01*
X138905000Y-104540000D02*
X138655000Y-104540000D01*
X138655000Y-103740000D02*
X138905000Y-103740000D01*
X142665000Y-106445000D02*
X142415000Y-106445000D01*
X142415000Y-105645000D02*
X142665000Y-105645000D01*
X138905000Y-106445000D02*
X138655000Y-106445000D01*
X138655000Y-105645000D02*
X138905000Y-105645000D01*
X134430000Y-105645000D02*
X134680000Y-105645000D01*
X134680000Y-106445000D02*
X134430000Y-106445000D01*
X134430000Y-101835000D02*
X134680000Y-101835000D01*
X134680000Y-102635000D02*
X134430000Y-102635000D01*
X145095000Y-87505000D02*
X145095000Y-87755000D01*
X144295000Y-87755000D02*
X144295000Y-87505000D01*
X146920000Y-101490000D02*
X146920000Y-101240000D01*
X147720000Y-101240000D02*
X147720000Y-101490000D01*
X146920000Y-99310000D02*
X146920000Y-99060000D01*
X147720000Y-99060000D02*
X147720000Y-99310000D01*
X148825000Y-99310000D02*
X148825000Y-99060000D01*
X149625000Y-99060000D02*
X149625000Y-99310000D01*
X136925000Y-88030000D02*
X136675000Y-88030000D01*
X136675000Y-87230000D02*
X136925000Y-87230000D01*
X141730000Y-87505000D02*
X141730000Y-87755000D01*
X140930000Y-87755000D02*
X140930000Y-87505000D01*
X158515000Y-86125000D02*
X158265000Y-86125000D01*
X158265000Y-85325000D02*
X158515000Y-85325000D01*
X158515000Y-88665000D02*
X158265000Y-88665000D01*
X158265000Y-87865000D02*
X158515000Y-87865000D01*
X152425000Y-97765000D02*
X152425000Y-96975000D01*
X158725000Y-91465000D02*
X158725000Y-92255000D01*
X152425000Y-91465000D02*
X152425000Y-92255000D01*
X158725000Y-97765000D02*
X157935000Y-97765000D01*
X158725000Y-91465000D02*
X157935000Y-91465000D01*
X152425000Y-91465000D02*
X153215000Y-91465000D01*
X152425000Y-97765000D02*
X153215000Y-97765000D01*
X126650000Y-87190000D02*
X126420000Y-87190000D01*
X126420000Y-88070000D02*
X126650000Y-88070000D01*
X133165000Y-87515000D02*
X133165000Y-87745000D01*
X134045000Y-87745000D02*
X134045000Y-87515000D01*
X130440000Y-92515000D02*
X130670000Y-92515000D01*
X130670000Y-91635000D02*
X130440000Y-91635000D01*
X147760000Y-97140000D02*
X147760000Y-96910000D01*
X146880000Y-96910000D02*
X146880000Y-97140000D01*
X146315000Y-91880000D02*
X146545000Y-91880000D01*
X146545000Y-91000000D02*
X146315000Y-91000000D01*
X130670000Y-99255000D02*
X130440000Y-99255000D01*
X130440000Y-100135000D02*
X130670000Y-100135000D01*
X155715000Y-100770000D02*
X155945000Y-100770000D01*
X155945000Y-99890000D02*
X155715000Y-99890000D01*
X140350000Y-108727000D02*
G75*
G03X140350000Y-108727000I-127000J0D01*
G01*
X142681000Y-90998800D02*
X142681000Y-91523800D01*
X135431000Y-98248800D02*
X135431000Y-97723800D01*
X142681000Y-98248800D02*
X142681000Y-97723800D01*
X135431000Y-90998800D02*
X135956000Y-90998800D01*
X135431000Y-98248800D02*
X135956000Y-98248800D01*
X142681000Y-98248800D02*
X142156000Y-98248800D01*
X142681000Y-90998800D02*
X142156000Y-90998800D01*
X127940000Y-104440000D02*
G75*
G03X127940000Y-104440000I-100000J0D01*
G01*
X128090000Y-103890000D02*
X128090000Y-104390000D01*
X130990000Y-103890000D02*
X128090000Y-103890000D01*
X130990000Y-104390000D02*
X130990000Y-103890000D01*
X128090000Y-104390000D02*
X130990000Y-104390000D01*
X138735000Y-80615000D02*
X141935000Y-80615000D01*
X141935000Y-80615000D02*
X141935000Y-83215000D01*
X141935000Y-83215000D02*
X138735000Y-83215000D01*
X138735000Y-83215000D02*
X138735000Y-80615000D01*
X155905000Y-88295000D02*
X152705000Y-88295000D01*
X152705000Y-88295000D02*
X152705000Y-85695000D01*
X152705000Y-85695000D02*
X155905000Y-85695000D01*
X155905000Y-85695000D02*
X155905000Y-88295000D01*
X117240000Y-84690000D02*
X117240000Y-84940000D01*
X116440000Y-84940000D02*
X116440000Y-84690000D01*
X124860000Y-105285000D02*
X124860000Y-105535000D01*
X124060000Y-105535000D02*
X124060000Y-105285000D01*
X122730000Y-103810000D02*
X122730000Y-104460000D01*
X121980000Y-103810000D02*
X122730000Y-103810000D01*
X117880000Y-103810000D02*
X120880000Y-103810000D01*
X120880000Y-107010000D02*
X117880000Y-107010000D01*
X115680000Y-101710000D02*
X115680000Y-88360000D01*
X115680000Y-88360000D02*
X123080000Y-88360000D01*
X123080000Y-88360000D02*
X123080000Y-101710000D01*
X123080000Y-101710000D02*
X115680000Y-101710000D01*
X120450000Y-82755000D02*
G75*
G03X120450000Y-82755000I-100000J0D01*
G01*
X120900000Y-83005000D02*
X120400000Y-83005000D01*
X120900000Y-85905000D02*
X120900000Y-83005000D01*
X120400000Y-85905000D02*
X120900000Y-85905000D01*
X120400000Y-83005000D02*
X120400000Y-85905000D01*
D10*
X120080000Y-89710000D02*
G75*
G03X120080000Y-89710000I-700000J0D01*
G01*
X120080000Y-92710000D02*
G75*
G03X120080000Y-92710000I-700000J0D01*
G01*
X120880000Y-97030000D02*
G75*
G03X120880000Y-97030000I-1500000J0D01*
G01*
D14*
X142916667Y-113085475D02*
X142916667Y-112966427D01*
X142988095Y-113109284D02*
X142738095Y-113025951D01*
X142988095Y-112942618D01*
X142821429Y-112859284D02*
X142988095Y-112859284D01*
X142845238Y-112859284D02*
X142833333Y-112847379D01*
X142821429Y-112823570D01*
X142821429Y-112787856D01*
X142833333Y-112764046D01*
X142857143Y-112752141D01*
X142988095Y-112752141D01*
X142821429Y-112668808D02*
X142821429Y-112573570D01*
X142738095Y-112633094D02*
X142952381Y-112633094D01*
X142976190Y-112621189D01*
X142988095Y-112597380D01*
X142988095Y-112573570D01*
X142976190Y-112394999D02*
X142988095Y-112418809D01*
X142988095Y-112466428D01*
X142976190Y-112490237D01*
X142952381Y-112502142D01*
X142857143Y-112502142D01*
X142833333Y-112490237D01*
X142821429Y-112466428D01*
X142821429Y-112418809D01*
X142833333Y-112394999D01*
X142857143Y-112383094D01*
X142880952Y-112383094D01*
X142904762Y-112502142D01*
X142821429Y-112275951D02*
X142988095Y-112275951D01*
X142845238Y-112275951D02*
X142833333Y-112264046D01*
X142821429Y-112240237D01*
X142821429Y-112204523D01*
X142833333Y-112180713D01*
X142857143Y-112168808D01*
X142988095Y-112168808D01*
X142821429Y-112049761D02*
X142988095Y-112049761D01*
X142845238Y-112049761D02*
X142833333Y-112037856D01*
X142821429Y-112014047D01*
X142821429Y-111978333D01*
X142833333Y-111954523D01*
X142857143Y-111942618D01*
X142988095Y-111942618D01*
X142988095Y-111716428D02*
X142857143Y-111716428D01*
X142833333Y-111728333D01*
X142821429Y-111752143D01*
X142821429Y-111799762D01*
X142833333Y-111823571D01*
X142976190Y-111716428D02*
X142988095Y-111740238D01*
X142988095Y-111799762D01*
X142976190Y-111823571D01*
X142952381Y-111835476D01*
X142928571Y-111835476D01*
X142904762Y-111823571D01*
X142892857Y-111799762D01*
X142892857Y-111740238D01*
X142880952Y-111716428D01*
D15*
X142808334Y-80787857D02*
X142789286Y-80806905D01*
X142732143Y-80825952D01*
X142694048Y-80825952D01*
X142636905Y-80806905D01*
X142598810Y-80768810D01*
X142579762Y-80730714D01*
X142560714Y-80654524D01*
X142560714Y-80597381D01*
X142579762Y-80521190D01*
X142598810Y-80483095D01*
X142636905Y-80445000D01*
X142694048Y-80425952D01*
X142732143Y-80425952D01*
X142789286Y-80445000D01*
X142808334Y-80464048D01*
X143189286Y-80825952D02*
X142960714Y-80825952D01*
X143075000Y-80825952D02*
X143075000Y-80425952D01*
X143036905Y-80483095D01*
X142998810Y-80521190D01*
X142960714Y-80540238D01*
X142808334Y-83327857D02*
X142789286Y-83346905D01*
X142732143Y-83365952D01*
X142694048Y-83365952D01*
X142636905Y-83346905D01*
X142598810Y-83308810D01*
X142579762Y-83270714D01*
X142560714Y-83194524D01*
X142560714Y-83137381D01*
X142579762Y-83061190D01*
X142598810Y-83023095D01*
X142636905Y-82985000D01*
X142694048Y-82965952D01*
X142732143Y-82965952D01*
X142789286Y-82985000D01*
X142808334Y-83004048D01*
X142960714Y-83004048D02*
X142979762Y-82985000D01*
X143017857Y-82965952D01*
X143113095Y-82965952D01*
X143151191Y-82985000D01*
X143170238Y-83004048D01*
X143189286Y-83042143D01*
X143189286Y-83080238D01*
X143170238Y-83137381D01*
X142941667Y-83365952D01*
X143189286Y-83365952D01*
X128838334Y-87772857D02*
X128819286Y-87791905D01*
X128762143Y-87810952D01*
X128724048Y-87810952D01*
X128666905Y-87791905D01*
X128628810Y-87753810D01*
X128609762Y-87715714D01*
X128590714Y-87639524D01*
X128590714Y-87582381D01*
X128609762Y-87506190D01*
X128628810Y-87468095D01*
X128666905Y-87430000D01*
X128724048Y-87410952D01*
X128762143Y-87410952D01*
X128819286Y-87430000D01*
X128838334Y-87449048D01*
X128971667Y-87410952D02*
X129219286Y-87410952D01*
X129085953Y-87563333D01*
X129143095Y-87563333D01*
X129181191Y-87582381D01*
X129200238Y-87601429D01*
X129219286Y-87639524D01*
X129219286Y-87734762D01*
X129200238Y-87772857D01*
X129181191Y-87791905D01*
X129143095Y-87810952D01*
X129028810Y-87810952D01*
X128990714Y-87791905D01*
X128971667Y-87772857D01*
X144713334Y-92852857D02*
X144694286Y-92871905D01*
X144637143Y-92890952D01*
X144599048Y-92890952D01*
X144541905Y-92871905D01*
X144503810Y-92833810D01*
X144484762Y-92795714D01*
X144465714Y-92719524D01*
X144465714Y-92662381D01*
X144484762Y-92586190D01*
X144503810Y-92548095D01*
X144541905Y-92510000D01*
X144599048Y-92490952D01*
X144637143Y-92490952D01*
X144694286Y-92510000D01*
X144713334Y-92529048D01*
X145056191Y-92624286D02*
X145056191Y-92890952D01*
X144960953Y-92471905D02*
X144865714Y-92757619D01*
X145113334Y-92757619D01*
X128838334Y-89677857D02*
X128819286Y-89696905D01*
X128762143Y-89715952D01*
X128724048Y-89715952D01*
X128666905Y-89696905D01*
X128628810Y-89658810D01*
X128609762Y-89620714D01*
X128590714Y-89544524D01*
X128590714Y-89487381D01*
X128609762Y-89411190D01*
X128628810Y-89373095D01*
X128666905Y-89335000D01*
X128724048Y-89315952D01*
X128762143Y-89315952D01*
X128819286Y-89335000D01*
X128838334Y-89354048D01*
X129200238Y-89315952D02*
X129009762Y-89315952D01*
X128990714Y-89506429D01*
X129009762Y-89487381D01*
X129047857Y-89468333D01*
X129143095Y-89468333D01*
X129181191Y-89487381D01*
X129200238Y-89506429D01*
X129219286Y-89544524D01*
X129219286Y-89639762D01*
X129200238Y-89677857D01*
X129181191Y-89696905D01*
X129143095Y-89715952D01*
X129047857Y-89715952D01*
X129009762Y-89696905D01*
X128990714Y-89677857D01*
X147888334Y-92852857D02*
X147869286Y-92871905D01*
X147812143Y-92890952D01*
X147774048Y-92890952D01*
X147716905Y-92871905D01*
X147678810Y-92833810D01*
X147659762Y-92795714D01*
X147640714Y-92719524D01*
X147640714Y-92662381D01*
X147659762Y-92586190D01*
X147678810Y-92548095D01*
X147716905Y-92510000D01*
X147774048Y-92490952D01*
X147812143Y-92490952D01*
X147869286Y-92510000D01*
X147888334Y-92529048D01*
X148231191Y-92490952D02*
X148155000Y-92490952D01*
X148116905Y-92510000D01*
X148097857Y-92529048D01*
X148059762Y-92586190D01*
X148040714Y-92662381D01*
X148040714Y-92814762D01*
X148059762Y-92852857D01*
X148078810Y-92871905D01*
X148116905Y-92890952D01*
X148193095Y-92890952D01*
X148231191Y-92871905D01*
X148250238Y-92852857D01*
X148269286Y-92814762D01*
X148269286Y-92719524D01*
X148250238Y-92681429D01*
X148231191Y-92662381D01*
X148193095Y-92643333D01*
X148116905Y-92643333D01*
X148078810Y-92662381D01*
X148059762Y-92681429D01*
X148040714Y-92719524D01*
X125028334Y-89677857D02*
X125009286Y-89696905D01*
X124952143Y-89715952D01*
X124914048Y-89715952D01*
X124856905Y-89696905D01*
X124818810Y-89658810D01*
X124799762Y-89620714D01*
X124780714Y-89544524D01*
X124780714Y-89487381D01*
X124799762Y-89411190D01*
X124818810Y-89373095D01*
X124856905Y-89335000D01*
X124914048Y-89315952D01*
X124952143Y-89315952D01*
X125009286Y-89335000D01*
X125028334Y-89354048D01*
X125161667Y-89315952D02*
X125428334Y-89315952D01*
X125256905Y-89715952D01*
X125028334Y-92217857D02*
X125009286Y-92236905D01*
X124952143Y-92255952D01*
X124914048Y-92255952D01*
X124856905Y-92236905D01*
X124818810Y-92198810D01*
X124799762Y-92160714D01*
X124780714Y-92084524D01*
X124780714Y-92027381D01*
X124799762Y-91951190D01*
X124818810Y-91913095D01*
X124856905Y-91875000D01*
X124914048Y-91855952D01*
X124952143Y-91855952D01*
X125009286Y-91875000D01*
X125028334Y-91894048D01*
X125256905Y-92027381D02*
X125218810Y-92008333D01*
X125199762Y-91989286D01*
X125180714Y-91951190D01*
X125180714Y-91932143D01*
X125199762Y-91894048D01*
X125218810Y-91875000D01*
X125256905Y-91855952D01*
X125333095Y-91855952D01*
X125371191Y-91875000D01*
X125390238Y-91894048D01*
X125409286Y-91932143D01*
X125409286Y-91951190D01*
X125390238Y-91989286D01*
X125371191Y-92008333D01*
X125333095Y-92027381D01*
X125256905Y-92027381D01*
X125218810Y-92046429D01*
X125199762Y-92065476D01*
X125180714Y-92103571D01*
X125180714Y-92179762D01*
X125199762Y-92217857D01*
X125218810Y-92236905D01*
X125256905Y-92255952D01*
X125333095Y-92255952D01*
X125371191Y-92236905D01*
X125390238Y-92217857D01*
X125409286Y-92179762D01*
X125409286Y-92103571D01*
X125390238Y-92065476D01*
X125371191Y-92046429D01*
X125333095Y-92027381D01*
X128838334Y-94757857D02*
X128819286Y-94776905D01*
X128762143Y-94795952D01*
X128724048Y-94795952D01*
X128666905Y-94776905D01*
X128628810Y-94738810D01*
X128609762Y-94700714D01*
X128590714Y-94624524D01*
X128590714Y-94567381D01*
X128609762Y-94491190D01*
X128628810Y-94453095D01*
X128666905Y-94415000D01*
X128724048Y-94395952D01*
X128762143Y-94395952D01*
X128819286Y-94415000D01*
X128838334Y-94434048D01*
X129028810Y-94795952D02*
X129105000Y-94795952D01*
X129143095Y-94776905D01*
X129162143Y-94757857D01*
X129200238Y-94700714D01*
X129219286Y-94624524D01*
X129219286Y-94472143D01*
X129200238Y-94434048D01*
X129181191Y-94415000D01*
X129143095Y-94395952D01*
X129066905Y-94395952D01*
X129028810Y-94415000D01*
X129009762Y-94434048D01*
X128990714Y-94472143D01*
X128990714Y-94567381D01*
X129009762Y-94605476D01*
X129028810Y-94624524D01*
X129066905Y-94643571D01*
X129143095Y-94643571D01*
X129181191Y-94624524D01*
X129200238Y-94605476D01*
X129219286Y-94567381D01*
X147697858Y-90947857D02*
X147678810Y-90966905D01*
X147621667Y-90985952D01*
X147583572Y-90985952D01*
X147526429Y-90966905D01*
X147488334Y-90928810D01*
X147469286Y-90890714D01*
X147450238Y-90814524D01*
X147450238Y-90757381D01*
X147469286Y-90681190D01*
X147488334Y-90643095D01*
X147526429Y-90605000D01*
X147583572Y-90585952D01*
X147621667Y-90585952D01*
X147678810Y-90605000D01*
X147697858Y-90624048D01*
X148078810Y-90985952D02*
X147850238Y-90985952D01*
X147964524Y-90985952D02*
X147964524Y-90585952D01*
X147926429Y-90643095D01*
X147888334Y-90681190D01*
X147850238Y-90700238D01*
X148326429Y-90585952D02*
X148364524Y-90585952D01*
X148402619Y-90605000D01*
X148421667Y-90624048D01*
X148440714Y-90662143D01*
X148459762Y-90738333D01*
X148459762Y-90833571D01*
X148440714Y-90909762D01*
X148421667Y-90947857D01*
X148402619Y-90966905D01*
X148364524Y-90985952D01*
X148326429Y-90985952D01*
X148288333Y-90966905D01*
X148269286Y-90947857D01*
X148250238Y-90909762D01*
X148231190Y-90833571D01*
X148231190Y-90738333D01*
X148250238Y-90662143D01*
X148269286Y-90624048D01*
X148288333Y-90605000D01*
X148326429Y-90585952D01*
X124837858Y-94757857D02*
X124818810Y-94776905D01*
X124761667Y-94795952D01*
X124723572Y-94795952D01*
X124666429Y-94776905D01*
X124628334Y-94738810D01*
X124609286Y-94700714D01*
X124590238Y-94624524D01*
X124590238Y-94567381D01*
X124609286Y-94491190D01*
X124628334Y-94453095D01*
X124666429Y-94415000D01*
X124723572Y-94395952D01*
X124761667Y-94395952D01*
X124818810Y-94415000D01*
X124837858Y-94434048D01*
X125218810Y-94795952D02*
X124990238Y-94795952D01*
X125104524Y-94795952D02*
X125104524Y-94395952D01*
X125066429Y-94453095D01*
X125028334Y-94491190D01*
X124990238Y-94510238D01*
X125599762Y-94795952D02*
X125371190Y-94795952D01*
X125485476Y-94795952D02*
X125485476Y-94395952D01*
X125447381Y-94453095D01*
X125409286Y-94491190D01*
X125371190Y-94510238D01*
X128647858Y-97297857D02*
X128628810Y-97316905D01*
X128571667Y-97335952D01*
X128533572Y-97335952D01*
X128476429Y-97316905D01*
X128438334Y-97278810D01*
X128419286Y-97240714D01*
X128400238Y-97164524D01*
X128400238Y-97107381D01*
X128419286Y-97031190D01*
X128438334Y-96993095D01*
X128476429Y-96955000D01*
X128533572Y-96935952D01*
X128571667Y-96935952D01*
X128628810Y-96955000D01*
X128647858Y-96974048D01*
X129028810Y-97335952D02*
X128800238Y-97335952D01*
X128914524Y-97335952D02*
X128914524Y-96935952D01*
X128876429Y-96993095D01*
X128838334Y-97031190D01*
X128800238Y-97050238D01*
X129181190Y-96974048D02*
X129200238Y-96955000D01*
X129238333Y-96935952D01*
X129333571Y-96935952D01*
X129371667Y-96955000D01*
X129390714Y-96974048D01*
X129409762Y-97012143D01*
X129409762Y-97050238D01*
X129390714Y-97107381D01*
X129162143Y-97335952D01*
X129409762Y-97335952D01*
X124837858Y-97297857D02*
X124818810Y-97316905D01*
X124761667Y-97335952D01*
X124723572Y-97335952D01*
X124666429Y-97316905D01*
X124628334Y-97278810D01*
X124609286Y-97240714D01*
X124590238Y-97164524D01*
X124590238Y-97107381D01*
X124609286Y-97031190D01*
X124628334Y-96993095D01*
X124666429Y-96955000D01*
X124723572Y-96935952D01*
X124761667Y-96935952D01*
X124818810Y-96955000D01*
X124837858Y-96974048D01*
X125218810Y-97335952D02*
X124990238Y-97335952D01*
X125104524Y-97335952D02*
X125104524Y-96935952D01*
X125066429Y-96993095D01*
X125028334Y-97031190D01*
X124990238Y-97050238D01*
X125352143Y-96935952D02*
X125599762Y-96935952D01*
X125466429Y-97088333D01*
X125523571Y-97088333D01*
X125561667Y-97107381D01*
X125580714Y-97126429D01*
X125599762Y-97164524D01*
X125599762Y-97259762D01*
X125580714Y-97297857D01*
X125561667Y-97316905D01*
X125523571Y-97335952D01*
X125409286Y-97335952D01*
X125371190Y-97316905D01*
X125352143Y-97297857D01*
X124837858Y-99837857D02*
X124818810Y-99856905D01*
X124761667Y-99875952D01*
X124723572Y-99875952D01*
X124666429Y-99856905D01*
X124628334Y-99818810D01*
X124609286Y-99780714D01*
X124590238Y-99704524D01*
X124590238Y-99647381D01*
X124609286Y-99571190D01*
X124628334Y-99533095D01*
X124666429Y-99495000D01*
X124723572Y-99475952D01*
X124761667Y-99475952D01*
X124818810Y-99495000D01*
X124837858Y-99514048D01*
X125218810Y-99875952D02*
X124990238Y-99875952D01*
X125104524Y-99875952D02*
X125104524Y-99475952D01*
X125066429Y-99533095D01*
X125028334Y-99571190D01*
X124990238Y-99590238D01*
X125561667Y-99609286D02*
X125561667Y-99875952D01*
X125466429Y-99456905D02*
X125371190Y-99742619D01*
X125618810Y-99742619D01*
X132457858Y-104282857D02*
X132438810Y-104301905D01*
X132381667Y-104320952D01*
X132343572Y-104320952D01*
X132286429Y-104301905D01*
X132248334Y-104263810D01*
X132229286Y-104225714D01*
X132210238Y-104149524D01*
X132210238Y-104092381D01*
X132229286Y-104016190D01*
X132248334Y-103978095D01*
X132286429Y-103940000D01*
X132343572Y-103920952D01*
X132381667Y-103920952D01*
X132438810Y-103940000D01*
X132457858Y-103959048D01*
X132838810Y-104320952D02*
X132610238Y-104320952D01*
X132724524Y-104320952D02*
X132724524Y-103920952D01*
X132686429Y-103978095D01*
X132648334Y-104016190D01*
X132610238Y-104035238D01*
X133200714Y-103920952D02*
X133010238Y-103920952D01*
X132991190Y-104111429D01*
X133010238Y-104092381D01*
X133048333Y-104073333D01*
X133143571Y-104073333D01*
X133181667Y-104092381D01*
X133200714Y-104111429D01*
X133219762Y-104149524D01*
X133219762Y-104244762D01*
X133200714Y-104282857D01*
X133181667Y-104301905D01*
X133143571Y-104320952D01*
X133048333Y-104320952D01*
X133010238Y-104301905D01*
X132991190Y-104282857D01*
X136267858Y-110632857D02*
X136248810Y-110651905D01*
X136191667Y-110670952D01*
X136153572Y-110670952D01*
X136096429Y-110651905D01*
X136058334Y-110613810D01*
X136039286Y-110575714D01*
X136020238Y-110499524D01*
X136020238Y-110442381D01*
X136039286Y-110366190D01*
X136058334Y-110328095D01*
X136096429Y-110290000D01*
X136153572Y-110270952D01*
X136191667Y-110270952D01*
X136248810Y-110290000D01*
X136267858Y-110309048D01*
X136648810Y-110670952D02*
X136420238Y-110670952D01*
X136534524Y-110670952D02*
X136534524Y-110270952D01*
X136496429Y-110328095D01*
X136458334Y-110366190D01*
X136420238Y-110385238D01*
X136991667Y-110270952D02*
X136915476Y-110270952D01*
X136877381Y-110290000D01*
X136858333Y-110309048D01*
X136820238Y-110366190D01*
X136801190Y-110442381D01*
X136801190Y-110594762D01*
X136820238Y-110632857D01*
X136839286Y-110651905D01*
X136877381Y-110670952D01*
X136953571Y-110670952D01*
X136991667Y-110651905D01*
X137010714Y-110632857D01*
X137029762Y-110594762D01*
X137029762Y-110499524D01*
X137010714Y-110461429D01*
X136991667Y-110442381D01*
X136953571Y-110423333D01*
X136877381Y-110423333D01*
X136839286Y-110442381D01*
X136820238Y-110461429D01*
X136801190Y-110499524D01*
X136267858Y-109362857D02*
X136248810Y-109381905D01*
X136191667Y-109400952D01*
X136153572Y-109400952D01*
X136096429Y-109381905D01*
X136058334Y-109343810D01*
X136039286Y-109305714D01*
X136020238Y-109229524D01*
X136020238Y-109172381D01*
X136039286Y-109096190D01*
X136058334Y-109058095D01*
X136096429Y-109020000D01*
X136153572Y-109000952D01*
X136191667Y-109000952D01*
X136248810Y-109020000D01*
X136267858Y-109039048D01*
X136648810Y-109400952D02*
X136420238Y-109400952D01*
X136534524Y-109400952D02*
X136534524Y-109000952D01*
X136496429Y-109058095D01*
X136458334Y-109096190D01*
X136420238Y-109115238D01*
X136782143Y-109000952D02*
X137048810Y-109000952D01*
X136877381Y-109400952D01*
X140712858Y-104282857D02*
X140693810Y-104301905D01*
X140636667Y-104320952D01*
X140598572Y-104320952D01*
X140541429Y-104301905D01*
X140503334Y-104263810D01*
X140484286Y-104225714D01*
X140465238Y-104149524D01*
X140465238Y-104092381D01*
X140484286Y-104016190D01*
X140503334Y-103978095D01*
X140541429Y-103940000D01*
X140598572Y-103920952D01*
X140636667Y-103920952D01*
X140693810Y-103940000D01*
X140712858Y-103959048D01*
X141093810Y-104320952D02*
X140865238Y-104320952D01*
X140979524Y-104320952D02*
X140979524Y-103920952D01*
X140941429Y-103978095D01*
X140903334Y-104016190D01*
X140865238Y-104035238D01*
X141322381Y-104092381D02*
X141284286Y-104073333D01*
X141265238Y-104054286D01*
X141246190Y-104016190D01*
X141246190Y-103997143D01*
X141265238Y-103959048D01*
X141284286Y-103940000D01*
X141322381Y-103920952D01*
X141398571Y-103920952D01*
X141436667Y-103940000D01*
X141455714Y-103959048D01*
X141474762Y-103997143D01*
X141474762Y-104016190D01*
X141455714Y-104054286D01*
X141436667Y-104073333D01*
X141398571Y-104092381D01*
X141322381Y-104092381D01*
X141284286Y-104111429D01*
X141265238Y-104130476D01*
X141246190Y-104168571D01*
X141246190Y-104244762D01*
X141265238Y-104282857D01*
X141284286Y-104301905D01*
X141322381Y-104320952D01*
X141398571Y-104320952D01*
X141436667Y-104301905D01*
X141455714Y-104282857D01*
X141474762Y-104244762D01*
X141474762Y-104168571D01*
X141455714Y-104130476D01*
X141436667Y-104111429D01*
X141398571Y-104092381D01*
X140712858Y-102377857D02*
X140693810Y-102396905D01*
X140636667Y-102415952D01*
X140598572Y-102415952D01*
X140541429Y-102396905D01*
X140503334Y-102358810D01*
X140484286Y-102320714D01*
X140465238Y-102244524D01*
X140465238Y-102187381D01*
X140484286Y-102111190D01*
X140503334Y-102073095D01*
X140541429Y-102035000D01*
X140598572Y-102015952D01*
X140636667Y-102015952D01*
X140693810Y-102035000D01*
X140712858Y-102054048D01*
X141093810Y-102415952D02*
X140865238Y-102415952D01*
X140979524Y-102415952D02*
X140979524Y-102015952D01*
X140941429Y-102073095D01*
X140903334Y-102111190D01*
X140865238Y-102130238D01*
X141284286Y-102415952D02*
X141360476Y-102415952D01*
X141398571Y-102396905D01*
X141417619Y-102377857D01*
X141455714Y-102320714D01*
X141474762Y-102244524D01*
X141474762Y-102092143D01*
X141455714Y-102054048D01*
X141436667Y-102035000D01*
X141398571Y-102015952D01*
X141322381Y-102015952D01*
X141284286Y-102035000D01*
X141265238Y-102054048D01*
X141246190Y-102092143D01*
X141246190Y-102187381D01*
X141265238Y-102225476D01*
X141284286Y-102244524D01*
X141322381Y-102263571D01*
X141398571Y-102263571D01*
X141436667Y-102244524D01*
X141455714Y-102225476D01*
X141474762Y-102187381D01*
X136902858Y-102377857D02*
X136883810Y-102396905D01*
X136826667Y-102415952D01*
X136788572Y-102415952D01*
X136731429Y-102396905D01*
X136693334Y-102358810D01*
X136674286Y-102320714D01*
X136655238Y-102244524D01*
X136655238Y-102187381D01*
X136674286Y-102111190D01*
X136693334Y-102073095D01*
X136731429Y-102035000D01*
X136788572Y-102015952D01*
X136826667Y-102015952D01*
X136883810Y-102035000D01*
X136902858Y-102054048D01*
X137055238Y-102054048D02*
X137074286Y-102035000D01*
X137112381Y-102015952D01*
X137207619Y-102015952D01*
X137245715Y-102035000D01*
X137264762Y-102054048D01*
X137283810Y-102092143D01*
X137283810Y-102130238D01*
X137264762Y-102187381D01*
X137036191Y-102415952D01*
X137283810Y-102415952D01*
X137531429Y-102015952D02*
X137569524Y-102015952D01*
X137607619Y-102035000D01*
X137626667Y-102054048D01*
X137645714Y-102092143D01*
X137664762Y-102168333D01*
X137664762Y-102263571D01*
X137645714Y-102339762D01*
X137626667Y-102377857D01*
X137607619Y-102396905D01*
X137569524Y-102415952D01*
X137531429Y-102415952D01*
X137493333Y-102396905D01*
X137474286Y-102377857D01*
X137455238Y-102339762D01*
X137436190Y-102263571D01*
X137436190Y-102168333D01*
X137455238Y-102092143D01*
X137474286Y-102054048D01*
X137493333Y-102035000D01*
X137531429Y-102015952D01*
X136902858Y-104282857D02*
X136883810Y-104301905D01*
X136826667Y-104320952D01*
X136788572Y-104320952D01*
X136731429Y-104301905D01*
X136693334Y-104263810D01*
X136674286Y-104225714D01*
X136655238Y-104149524D01*
X136655238Y-104092381D01*
X136674286Y-104016190D01*
X136693334Y-103978095D01*
X136731429Y-103940000D01*
X136788572Y-103920952D01*
X136826667Y-103920952D01*
X136883810Y-103940000D01*
X136902858Y-103959048D01*
X137055238Y-103959048D02*
X137074286Y-103940000D01*
X137112381Y-103920952D01*
X137207619Y-103920952D01*
X137245715Y-103940000D01*
X137264762Y-103959048D01*
X137283810Y-103997143D01*
X137283810Y-104035238D01*
X137264762Y-104092381D01*
X137036191Y-104320952D01*
X137283810Y-104320952D01*
X137664762Y-104320952D02*
X137436190Y-104320952D01*
X137550476Y-104320952D02*
X137550476Y-103920952D01*
X137512381Y-103978095D01*
X137474286Y-104016190D01*
X137436190Y-104035238D01*
X140712858Y-106187857D02*
X140693810Y-106206905D01*
X140636667Y-106225952D01*
X140598572Y-106225952D01*
X140541429Y-106206905D01*
X140503334Y-106168810D01*
X140484286Y-106130714D01*
X140465238Y-106054524D01*
X140465238Y-105997381D01*
X140484286Y-105921190D01*
X140503334Y-105883095D01*
X140541429Y-105845000D01*
X140598572Y-105825952D01*
X140636667Y-105825952D01*
X140693810Y-105845000D01*
X140712858Y-105864048D01*
X140865238Y-105864048D02*
X140884286Y-105845000D01*
X140922381Y-105825952D01*
X141017619Y-105825952D01*
X141055715Y-105845000D01*
X141074762Y-105864048D01*
X141093810Y-105902143D01*
X141093810Y-105940238D01*
X141074762Y-105997381D01*
X140846191Y-106225952D01*
X141093810Y-106225952D01*
X141246190Y-105864048D02*
X141265238Y-105845000D01*
X141303333Y-105825952D01*
X141398571Y-105825952D01*
X141436667Y-105845000D01*
X141455714Y-105864048D01*
X141474762Y-105902143D01*
X141474762Y-105940238D01*
X141455714Y-105997381D01*
X141227143Y-106225952D01*
X141474762Y-106225952D01*
X136902858Y-106187857D02*
X136883810Y-106206905D01*
X136826667Y-106225952D01*
X136788572Y-106225952D01*
X136731429Y-106206905D01*
X136693334Y-106168810D01*
X136674286Y-106130714D01*
X136655238Y-106054524D01*
X136655238Y-105997381D01*
X136674286Y-105921190D01*
X136693334Y-105883095D01*
X136731429Y-105845000D01*
X136788572Y-105825952D01*
X136826667Y-105825952D01*
X136883810Y-105845000D01*
X136902858Y-105864048D01*
X137055238Y-105864048D02*
X137074286Y-105845000D01*
X137112381Y-105825952D01*
X137207619Y-105825952D01*
X137245715Y-105845000D01*
X137264762Y-105864048D01*
X137283810Y-105902143D01*
X137283810Y-105940238D01*
X137264762Y-105997381D01*
X137036191Y-106225952D01*
X137283810Y-106225952D01*
X137417143Y-105825952D02*
X137664762Y-105825952D01*
X137531429Y-105978333D01*
X137588571Y-105978333D01*
X137626667Y-105997381D01*
X137645714Y-106016429D01*
X137664762Y-106054524D01*
X137664762Y-106149762D01*
X137645714Y-106187857D01*
X137626667Y-106206905D01*
X137588571Y-106225952D01*
X137474286Y-106225952D01*
X137436190Y-106206905D01*
X137417143Y-106187857D01*
X132457858Y-106187857D02*
X132438810Y-106206905D01*
X132381667Y-106225952D01*
X132343572Y-106225952D01*
X132286429Y-106206905D01*
X132248334Y-106168810D01*
X132229286Y-106130714D01*
X132210238Y-106054524D01*
X132210238Y-105997381D01*
X132229286Y-105921190D01*
X132248334Y-105883095D01*
X132286429Y-105845000D01*
X132343572Y-105825952D01*
X132381667Y-105825952D01*
X132438810Y-105845000D01*
X132457858Y-105864048D01*
X132610238Y-105864048D02*
X132629286Y-105845000D01*
X132667381Y-105825952D01*
X132762619Y-105825952D01*
X132800715Y-105845000D01*
X132819762Y-105864048D01*
X132838810Y-105902143D01*
X132838810Y-105940238D01*
X132819762Y-105997381D01*
X132591191Y-106225952D01*
X132838810Y-106225952D01*
X133181667Y-105959286D02*
X133181667Y-106225952D01*
X133086429Y-105806905D02*
X132991190Y-106092619D01*
X133238810Y-106092619D01*
X132457858Y-102377857D02*
X132438810Y-102396905D01*
X132381667Y-102415952D01*
X132343572Y-102415952D01*
X132286429Y-102396905D01*
X132248334Y-102358810D01*
X132229286Y-102320714D01*
X132210238Y-102244524D01*
X132210238Y-102187381D01*
X132229286Y-102111190D01*
X132248334Y-102073095D01*
X132286429Y-102035000D01*
X132343572Y-102015952D01*
X132381667Y-102015952D01*
X132438810Y-102035000D01*
X132457858Y-102054048D01*
X132610238Y-102054048D02*
X132629286Y-102035000D01*
X132667381Y-102015952D01*
X132762619Y-102015952D01*
X132800715Y-102035000D01*
X132819762Y-102054048D01*
X132838810Y-102092143D01*
X132838810Y-102130238D01*
X132819762Y-102187381D01*
X132591191Y-102415952D01*
X132838810Y-102415952D01*
X133200714Y-102015952D02*
X133010238Y-102015952D01*
X132991190Y-102206429D01*
X133010238Y-102187381D01*
X133048333Y-102168333D01*
X133143571Y-102168333D01*
X133181667Y-102187381D01*
X133200714Y-102206429D01*
X133219762Y-102244524D01*
X133219762Y-102339762D01*
X133200714Y-102377857D01*
X133181667Y-102396905D01*
X133143571Y-102415952D01*
X133048333Y-102415952D01*
X133010238Y-102396905D01*
X132991190Y-102377857D01*
X143887858Y-86502857D02*
X143868810Y-86521905D01*
X143811667Y-86540952D01*
X143773572Y-86540952D01*
X143716429Y-86521905D01*
X143678334Y-86483810D01*
X143659286Y-86445714D01*
X143640238Y-86369524D01*
X143640238Y-86312381D01*
X143659286Y-86236190D01*
X143678334Y-86198095D01*
X143716429Y-86160000D01*
X143773572Y-86140952D01*
X143811667Y-86140952D01*
X143868810Y-86160000D01*
X143887858Y-86179048D01*
X144040238Y-86179048D02*
X144059286Y-86160000D01*
X144097381Y-86140952D01*
X144192619Y-86140952D01*
X144230715Y-86160000D01*
X144249762Y-86179048D01*
X144268810Y-86217143D01*
X144268810Y-86255238D01*
X144249762Y-86312381D01*
X144021191Y-86540952D01*
X144268810Y-86540952D01*
X144611667Y-86140952D02*
X144535476Y-86140952D01*
X144497381Y-86160000D01*
X144478333Y-86179048D01*
X144440238Y-86236190D01*
X144421190Y-86312381D01*
X144421190Y-86464762D01*
X144440238Y-86502857D01*
X144459286Y-86521905D01*
X144497381Y-86540952D01*
X144573571Y-86540952D01*
X144611667Y-86521905D01*
X144630714Y-86502857D01*
X144649762Y-86464762D01*
X144649762Y-86369524D01*
X144630714Y-86331429D01*
X144611667Y-86312381D01*
X144573571Y-86293333D01*
X144497381Y-86293333D01*
X144459286Y-86312381D01*
X144440238Y-86331429D01*
X144421190Y-86369524D01*
X145792858Y-101742857D02*
X145773810Y-101761905D01*
X145716667Y-101780952D01*
X145678572Y-101780952D01*
X145621429Y-101761905D01*
X145583334Y-101723810D01*
X145564286Y-101685714D01*
X145545238Y-101609524D01*
X145545238Y-101552381D01*
X145564286Y-101476190D01*
X145583334Y-101438095D01*
X145621429Y-101400000D01*
X145678572Y-101380952D01*
X145716667Y-101380952D01*
X145773810Y-101400000D01*
X145792858Y-101419048D01*
X145945238Y-101419048D02*
X145964286Y-101400000D01*
X146002381Y-101380952D01*
X146097619Y-101380952D01*
X146135715Y-101400000D01*
X146154762Y-101419048D01*
X146173810Y-101457143D01*
X146173810Y-101495238D01*
X146154762Y-101552381D01*
X145926191Y-101780952D01*
X146173810Y-101780952D01*
X146307143Y-101380952D02*
X146573810Y-101380952D01*
X146402381Y-101780952D01*
X145792858Y-99202857D02*
X145773810Y-99221905D01*
X145716667Y-99240952D01*
X145678572Y-99240952D01*
X145621429Y-99221905D01*
X145583334Y-99183810D01*
X145564286Y-99145714D01*
X145545238Y-99069524D01*
X145545238Y-99012381D01*
X145564286Y-98936190D01*
X145583334Y-98898095D01*
X145621429Y-98860000D01*
X145678572Y-98840952D01*
X145716667Y-98840952D01*
X145773810Y-98860000D01*
X145792858Y-98879048D01*
X145945238Y-98879048D02*
X145964286Y-98860000D01*
X146002381Y-98840952D01*
X146097619Y-98840952D01*
X146135715Y-98860000D01*
X146154762Y-98879048D01*
X146173810Y-98917143D01*
X146173810Y-98955238D01*
X146154762Y-99012381D01*
X145926191Y-99240952D01*
X146173810Y-99240952D01*
X146402381Y-99012381D02*
X146364286Y-98993333D01*
X146345238Y-98974286D01*
X146326190Y-98936190D01*
X146326190Y-98917143D01*
X146345238Y-98879048D01*
X146364286Y-98860000D01*
X146402381Y-98840952D01*
X146478571Y-98840952D01*
X146516667Y-98860000D01*
X146535714Y-98879048D01*
X146554762Y-98917143D01*
X146554762Y-98936190D01*
X146535714Y-98974286D01*
X146516667Y-98993333D01*
X146478571Y-99012381D01*
X146402381Y-99012381D01*
X146364286Y-99031429D01*
X146345238Y-99050476D01*
X146326190Y-99088571D01*
X146326190Y-99164762D01*
X146345238Y-99202857D01*
X146364286Y-99221905D01*
X146402381Y-99240952D01*
X146478571Y-99240952D01*
X146516667Y-99221905D01*
X146535714Y-99202857D01*
X146554762Y-99164762D01*
X146554762Y-99088571D01*
X146535714Y-99050476D01*
X146516667Y-99031429D01*
X146478571Y-99012381D01*
X148967858Y-97932857D02*
X148948810Y-97951905D01*
X148891667Y-97970952D01*
X148853572Y-97970952D01*
X148796429Y-97951905D01*
X148758334Y-97913810D01*
X148739286Y-97875714D01*
X148720238Y-97799524D01*
X148720238Y-97742381D01*
X148739286Y-97666190D01*
X148758334Y-97628095D01*
X148796429Y-97590000D01*
X148853572Y-97570952D01*
X148891667Y-97570952D01*
X148948810Y-97590000D01*
X148967858Y-97609048D01*
X149120238Y-97609048D02*
X149139286Y-97590000D01*
X149177381Y-97570952D01*
X149272619Y-97570952D01*
X149310715Y-97590000D01*
X149329762Y-97609048D01*
X149348810Y-97647143D01*
X149348810Y-97685238D01*
X149329762Y-97742381D01*
X149101191Y-97970952D01*
X149348810Y-97970952D01*
X149539286Y-97970952D02*
X149615476Y-97970952D01*
X149653571Y-97951905D01*
X149672619Y-97932857D01*
X149710714Y-97875714D01*
X149729762Y-97799524D01*
X149729762Y-97647143D01*
X149710714Y-97609048D01*
X149691667Y-97590000D01*
X149653571Y-97570952D01*
X149577381Y-97570952D01*
X149539286Y-97590000D01*
X149520238Y-97609048D01*
X149501190Y-97647143D01*
X149501190Y-97742381D01*
X149520238Y-97780476D01*
X149539286Y-97799524D01*
X149577381Y-97818571D01*
X149653571Y-97818571D01*
X149691667Y-97799524D01*
X149710714Y-97780476D01*
X149729762Y-97742381D01*
X136267858Y-86502857D02*
X136248810Y-86521905D01*
X136191667Y-86540952D01*
X136153572Y-86540952D01*
X136096429Y-86521905D01*
X136058334Y-86483810D01*
X136039286Y-86445714D01*
X136020238Y-86369524D01*
X136020238Y-86312381D01*
X136039286Y-86236190D01*
X136058334Y-86198095D01*
X136096429Y-86160000D01*
X136153572Y-86140952D01*
X136191667Y-86140952D01*
X136248810Y-86160000D01*
X136267858Y-86179048D01*
X136401191Y-86140952D02*
X136648810Y-86140952D01*
X136515477Y-86293333D01*
X136572619Y-86293333D01*
X136610715Y-86312381D01*
X136629762Y-86331429D01*
X136648810Y-86369524D01*
X136648810Y-86464762D01*
X136629762Y-86502857D01*
X136610715Y-86521905D01*
X136572619Y-86540952D01*
X136458334Y-86540952D01*
X136420238Y-86521905D01*
X136401191Y-86502857D01*
X136896429Y-86140952D02*
X136934524Y-86140952D01*
X136972619Y-86160000D01*
X136991667Y-86179048D01*
X137010714Y-86217143D01*
X137029762Y-86293333D01*
X137029762Y-86388571D01*
X137010714Y-86464762D01*
X136991667Y-86502857D01*
X136972619Y-86521905D01*
X136934524Y-86540952D01*
X136896429Y-86540952D01*
X136858333Y-86521905D01*
X136839286Y-86502857D01*
X136820238Y-86464762D01*
X136801190Y-86388571D01*
X136801190Y-86293333D01*
X136820238Y-86217143D01*
X136839286Y-86179048D01*
X136858333Y-86160000D01*
X136896429Y-86140952D01*
X140712858Y-86502857D02*
X140693810Y-86521905D01*
X140636667Y-86540952D01*
X140598572Y-86540952D01*
X140541429Y-86521905D01*
X140503334Y-86483810D01*
X140484286Y-86445714D01*
X140465238Y-86369524D01*
X140465238Y-86312381D01*
X140484286Y-86236190D01*
X140503334Y-86198095D01*
X140541429Y-86160000D01*
X140598572Y-86140952D01*
X140636667Y-86140952D01*
X140693810Y-86160000D01*
X140712858Y-86179048D01*
X140846191Y-86140952D02*
X141093810Y-86140952D01*
X140960477Y-86293333D01*
X141017619Y-86293333D01*
X141055715Y-86312381D01*
X141074762Y-86331429D01*
X141093810Y-86369524D01*
X141093810Y-86464762D01*
X141074762Y-86502857D01*
X141055715Y-86521905D01*
X141017619Y-86540952D01*
X140903334Y-86540952D01*
X140865238Y-86521905D01*
X140846191Y-86502857D01*
X141474762Y-86540952D02*
X141246190Y-86540952D01*
X141360476Y-86540952D02*
X141360476Y-86140952D01*
X141322381Y-86198095D01*
X141284286Y-86236190D01*
X141246190Y-86255238D01*
X156587858Y-85867857D02*
X156568810Y-85886905D01*
X156511667Y-85905952D01*
X156473572Y-85905952D01*
X156416429Y-85886905D01*
X156378334Y-85848810D01*
X156359286Y-85810714D01*
X156340238Y-85734524D01*
X156340238Y-85677381D01*
X156359286Y-85601190D01*
X156378334Y-85563095D01*
X156416429Y-85525000D01*
X156473572Y-85505952D01*
X156511667Y-85505952D01*
X156568810Y-85525000D01*
X156587858Y-85544048D01*
X156721191Y-85505952D02*
X156968810Y-85505952D01*
X156835477Y-85658333D01*
X156892619Y-85658333D01*
X156930715Y-85677381D01*
X156949762Y-85696429D01*
X156968810Y-85734524D01*
X156968810Y-85829762D01*
X156949762Y-85867857D01*
X156930715Y-85886905D01*
X156892619Y-85905952D01*
X156778334Y-85905952D01*
X156740238Y-85886905D01*
X156721191Y-85867857D01*
X157121190Y-85544048D02*
X157140238Y-85525000D01*
X157178333Y-85505952D01*
X157273571Y-85505952D01*
X157311667Y-85525000D01*
X157330714Y-85544048D01*
X157349762Y-85582143D01*
X157349762Y-85620238D01*
X157330714Y-85677381D01*
X157102143Y-85905952D01*
X157349762Y-85905952D01*
X156587858Y-88407857D02*
X156568810Y-88426905D01*
X156511667Y-88445952D01*
X156473572Y-88445952D01*
X156416429Y-88426905D01*
X156378334Y-88388810D01*
X156359286Y-88350714D01*
X156340238Y-88274524D01*
X156340238Y-88217381D01*
X156359286Y-88141190D01*
X156378334Y-88103095D01*
X156416429Y-88065000D01*
X156473572Y-88045952D01*
X156511667Y-88045952D01*
X156568810Y-88065000D01*
X156587858Y-88084048D01*
X156721191Y-88045952D02*
X156968810Y-88045952D01*
X156835477Y-88198333D01*
X156892619Y-88198333D01*
X156930715Y-88217381D01*
X156949762Y-88236429D01*
X156968810Y-88274524D01*
X156968810Y-88369762D01*
X156949762Y-88407857D01*
X156930715Y-88426905D01*
X156892619Y-88445952D01*
X156778334Y-88445952D01*
X156740238Y-88426905D01*
X156721191Y-88407857D01*
X157102143Y-88045952D02*
X157349762Y-88045952D01*
X157216429Y-88198333D01*
X157273571Y-88198333D01*
X157311667Y-88217381D01*
X157330714Y-88236429D01*
X157349762Y-88274524D01*
X157349762Y-88369762D01*
X157330714Y-88407857D01*
X157311667Y-88426905D01*
X157273571Y-88445952D01*
X157159286Y-88445952D01*
X157121190Y-88426905D01*
X157102143Y-88407857D01*
X155184524Y-99145952D02*
X155184524Y-98745952D01*
X155603572Y-99107857D02*
X155584524Y-99126905D01*
X155527381Y-99145952D01*
X155489286Y-99145952D01*
X155432143Y-99126905D01*
X155394048Y-99088810D01*
X155375000Y-99050714D01*
X155355952Y-98974524D01*
X155355952Y-98917381D01*
X155375000Y-98841190D01*
X155394048Y-98803095D01*
X155432143Y-98765000D01*
X155489286Y-98745952D01*
X155527381Y-98745952D01*
X155584524Y-98765000D01*
X155603572Y-98784048D01*
X155984524Y-99145952D02*
X155755952Y-99145952D01*
X155870238Y-99145952D02*
X155870238Y-98745952D01*
X155832143Y-98803095D01*
X155794048Y-98841190D01*
X155755952Y-98860238D01*
X125028334Y-87810952D02*
X124895000Y-87620476D01*
X124799762Y-87810952D02*
X124799762Y-87410952D01*
X124952143Y-87410952D01*
X124990238Y-87430000D01*
X125009286Y-87449048D01*
X125028334Y-87487143D01*
X125028334Y-87544286D01*
X125009286Y-87582381D01*
X124990238Y-87601429D01*
X124952143Y-87620476D01*
X124799762Y-87620476D01*
X125409286Y-87810952D02*
X125180714Y-87810952D01*
X125295000Y-87810952D02*
X125295000Y-87410952D01*
X125256905Y-87468095D01*
X125218810Y-87506190D01*
X125180714Y-87525238D01*
X132013334Y-87175952D02*
X131880000Y-86985476D01*
X131784762Y-87175952D02*
X131784762Y-86775952D01*
X131937143Y-86775952D01*
X131975238Y-86795000D01*
X131994286Y-86814048D01*
X132013334Y-86852143D01*
X132013334Y-86909286D01*
X131994286Y-86947381D01*
X131975238Y-86966429D01*
X131937143Y-86985476D01*
X131784762Y-86985476D01*
X132165714Y-86814048D02*
X132184762Y-86795000D01*
X132222857Y-86775952D01*
X132318095Y-86775952D01*
X132356191Y-86795000D01*
X132375238Y-86814048D01*
X132394286Y-86852143D01*
X132394286Y-86890238D01*
X132375238Y-86947381D01*
X132146667Y-87175952D01*
X132394286Y-87175952D01*
X128838334Y-92255952D02*
X128705000Y-92065476D01*
X128609762Y-92255952D02*
X128609762Y-91855952D01*
X128762143Y-91855952D01*
X128800238Y-91875000D01*
X128819286Y-91894048D01*
X128838334Y-91932143D01*
X128838334Y-91989286D01*
X128819286Y-92027381D01*
X128800238Y-92046429D01*
X128762143Y-92065476D01*
X128609762Y-92065476D01*
X128971667Y-91855952D02*
X129219286Y-91855952D01*
X129085953Y-92008333D01*
X129143095Y-92008333D01*
X129181191Y-92027381D01*
X129200238Y-92046429D01*
X129219286Y-92084524D01*
X129219286Y-92179762D01*
X129200238Y-92217857D01*
X129181191Y-92236905D01*
X129143095Y-92255952D01*
X129028810Y-92255952D01*
X128990714Y-92236905D01*
X128971667Y-92217857D01*
X145983334Y-97335952D02*
X145850000Y-97145476D01*
X145754762Y-97335952D02*
X145754762Y-96935952D01*
X145907143Y-96935952D01*
X145945238Y-96955000D01*
X145964286Y-96974048D01*
X145983334Y-97012143D01*
X145983334Y-97069286D01*
X145964286Y-97107381D01*
X145945238Y-97126429D01*
X145907143Y-97145476D01*
X145754762Y-97145476D01*
X146326191Y-97069286D02*
X146326191Y-97335952D01*
X146230953Y-96916905D02*
X146135714Y-97202619D01*
X146383334Y-97202619D01*
X144713334Y-90985952D02*
X144580000Y-90795476D01*
X144484762Y-90985952D02*
X144484762Y-90585952D01*
X144637143Y-90585952D01*
X144675238Y-90605000D01*
X144694286Y-90624048D01*
X144713334Y-90662143D01*
X144713334Y-90719286D01*
X144694286Y-90757381D01*
X144675238Y-90776429D01*
X144637143Y-90795476D01*
X144484762Y-90795476D01*
X145075238Y-90585952D02*
X144884762Y-90585952D01*
X144865714Y-90776429D01*
X144884762Y-90757381D01*
X144922857Y-90738333D01*
X145018095Y-90738333D01*
X145056191Y-90757381D01*
X145075238Y-90776429D01*
X145094286Y-90814524D01*
X145094286Y-90909762D01*
X145075238Y-90947857D01*
X145056191Y-90966905D01*
X145018095Y-90985952D01*
X144922857Y-90985952D01*
X144884762Y-90966905D01*
X144865714Y-90947857D01*
X128838334Y-99875952D02*
X128705000Y-99685476D01*
X128609762Y-99875952D02*
X128609762Y-99475952D01*
X128762143Y-99475952D01*
X128800238Y-99495000D01*
X128819286Y-99514048D01*
X128838334Y-99552143D01*
X128838334Y-99609286D01*
X128819286Y-99647381D01*
X128800238Y-99666429D01*
X128762143Y-99685476D01*
X128609762Y-99685476D01*
X129181191Y-99475952D02*
X129105000Y-99475952D01*
X129066905Y-99495000D01*
X129047857Y-99514048D01*
X129009762Y-99571190D01*
X128990714Y-99647381D01*
X128990714Y-99799762D01*
X129009762Y-99837857D01*
X129028810Y-99856905D01*
X129066905Y-99875952D01*
X129143095Y-99875952D01*
X129181191Y-99856905D01*
X129200238Y-99837857D01*
X129219286Y-99799762D01*
X129219286Y-99704524D01*
X129200238Y-99666429D01*
X129181191Y-99647381D01*
X129143095Y-99628333D01*
X129066905Y-99628333D01*
X129028810Y-99647381D01*
X129009762Y-99666429D01*
X128990714Y-99704524D01*
X154238334Y-100510952D02*
X154105000Y-100320476D01*
X154009762Y-100510952D02*
X154009762Y-100110952D01*
X154162143Y-100110952D01*
X154200238Y-100130000D01*
X154219286Y-100149048D01*
X154238334Y-100187143D01*
X154238334Y-100244286D01*
X154219286Y-100282381D01*
X154200238Y-100301429D01*
X154162143Y-100320476D01*
X154009762Y-100320476D01*
X154371667Y-100110952D02*
X154638334Y-100110952D01*
X154466905Y-100510952D01*
X141300238Y-111540952D02*
X141528810Y-111540952D01*
X141414524Y-111940952D02*
X141414524Y-111540952D01*
X141871667Y-111940952D02*
X141643095Y-111940952D01*
X141757381Y-111940952D02*
X141757381Y-111540952D01*
X141719286Y-111598095D01*
X141681191Y-111636190D01*
X141643095Y-111655238D01*
X138751238Y-89654752D02*
X138751238Y-89978562D01*
X138770286Y-90016657D01*
X138789333Y-90035705D01*
X138827429Y-90054752D01*
X138903619Y-90054752D01*
X138941714Y-90035705D01*
X138960762Y-90016657D01*
X138979810Y-89978562D01*
X138979810Y-89654752D01*
X139379810Y-90054752D02*
X139151238Y-90054752D01*
X139265524Y-90054752D02*
X139265524Y-89654752D01*
X139227429Y-89711895D01*
X139189334Y-89749990D01*
X139151238Y-89769038D01*
X126770952Y-104494762D02*
X127094762Y-104494762D01*
X127132857Y-104475714D01*
X127151905Y-104456667D01*
X127170952Y-104418571D01*
X127170952Y-104342381D01*
X127151905Y-104304286D01*
X127132857Y-104285238D01*
X127094762Y-104266190D01*
X126770952Y-104266190D01*
X126809048Y-104094762D02*
X126790000Y-104075714D01*
X126770952Y-104037619D01*
X126770952Y-103942381D01*
X126790000Y-103904285D01*
X126809048Y-103885238D01*
X126847143Y-103866190D01*
X126885238Y-103866190D01*
X126942381Y-103885238D01*
X127170952Y-104113809D01*
X127170952Y-103866190D01*
X140044525Y-79605476D02*
X140044525Y-79795952D01*
X139911191Y-79395952D02*
X140044525Y-79605476D01*
X140177858Y-79395952D01*
X140520715Y-79795952D02*
X140292143Y-79795952D01*
X140406429Y-79795952D02*
X140406429Y-79395952D01*
X140368334Y-79453095D01*
X140330239Y-79491190D01*
X140292143Y-79510238D01*
X154214525Y-89285476D02*
X154214525Y-89475952D01*
X154081191Y-89075952D02*
X154214525Y-89285476D01*
X154347858Y-89075952D01*
X154462143Y-89114048D02*
X154481191Y-89095000D01*
X154519286Y-89075952D01*
X154614524Y-89075952D01*
X154652620Y-89095000D01*
X154671667Y-89114048D01*
X154690715Y-89152143D01*
X154690715Y-89190238D01*
X154671667Y-89247381D01*
X154443096Y-89475952D01*
X154690715Y-89475952D01*
X115312858Y-84597857D02*
X115293810Y-84616905D01*
X115236667Y-84635952D01*
X115198572Y-84635952D01*
X115141429Y-84616905D01*
X115103334Y-84578810D01*
X115084286Y-84540714D01*
X115065238Y-84464524D01*
X115065238Y-84407381D01*
X115084286Y-84331190D01*
X115103334Y-84293095D01*
X115141429Y-84255000D01*
X115198572Y-84235952D01*
X115236667Y-84235952D01*
X115293810Y-84255000D01*
X115312858Y-84274048D01*
X115446191Y-84235952D02*
X115693810Y-84235952D01*
X115560477Y-84388333D01*
X115617619Y-84388333D01*
X115655715Y-84407381D01*
X115674762Y-84426429D01*
X115693810Y-84464524D01*
X115693810Y-84559762D01*
X115674762Y-84597857D01*
X115655715Y-84616905D01*
X115617619Y-84635952D01*
X115503334Y-84635952D01*
X115465238Y-84616905D01*
X115446191Y-84597857D01*
X116036667Y-84369286D02*
X116036667Y-84635952D01*
X115941429Y-84216905D02*
X115846190Y-84502619D01*
X116093810Y-84502619D01*
X124202858Y-104282857D02*
X124183810Y-104301905D01*
X124126667Y-104320952D01*
X124088572Y-104320952D01*
X124031429Y-104301905D01*
X123993334Y-104263810D01*
X123974286Y-104225714D01*
X123955238Y-104149524D01*
X123955238Y-104092381D01*
X123974286Y-104016190D01*
X123993334Y-103978095D01*
X124031429Y-103940000D01*
X124088572Y-103920952D01*
X124126667Y-103920952D01*
X124183810Y-103940000D01*
X124202858Y-103959048D01*
X124336191Y-103920952D02*
X124583810Y-103920952D01*
X124450477Y-104073333D01*
X124507619Y-104073333D01*
X124545715Y-104092381D01*
X124564762Y-104111429D01*
X124583810Y-104149524D01*
X124583810Y-104244762D01*
X124564762Y-104282857D01*
X124545715Y-104301905D01*
X124507619Y-104320952D01*
X124393334Y-104320952D01*
X124355238Y-104301905D01*
X124336191Y-104282857D01*
X124945714Y-103920952D02*
X124755238Y-103920952D01*
X124736190Y-104111429D01*
X124755238Y-104092381D01*
X124793333Y-104073333D01*
X124888571Y-104073333D01*
X124926667Y-104092381D01*
X124945714Y-104111429D01*
X124964762Y-104149524D01*
X124964762Y-104244762D01*
X124945714Y-104282857D01*
X124926667Y-104301905D01*
X124888571Y-104320952D01*
X124793333Y-104320952D01*
X124755238Y-104301905D01*
X124736190Y-104282857D01*
X119313333Y-102840952D02*
X119122857Y-102840952D01*
X119122857Y-102440952D01*
X119656191Y-102840952D02*
X119427619Y-102840952D01*
X119541905Y-102840952D02*
X119541905Y-102440952D01*
X119503810Y-102498095D01*
X119465715Y-102536190D01*
X119427619Y-102555238D01*
X115909762Y-87810952D02*
X115909762Y-87410952D01*
X116062143Y-87410952D01*
X116100238Y-87430000D01*
X116119286Y-87449048D01*
X116138334Y-87487143D01*
X116138334Y-87544286D01*
X116119286Y-87582381D01*
X116100238Y-87601429D01*
X116062143Y-87620476D01*
X115909762Y-87620476D01*
X116519286Y-87810952D02*
X116290714Y-87810952D01*
X116405000Y-87810952D02*
X116405000Y-87410952D01*
X116366905Y-87468095D01*
X116328810Y-87506190D01*
X116290714Y-87525238D01*
X120295238Y-81685952D02*
X120295238Y-82009762D01*
X120314286Y-82047857D01*
X120333333Y-82066905D01*
X120371429Y-82085952D01*
X120447619Y-82085952D01*
X120485714Y-82066905D01*
X120504762Y-82047857D01*
X120523810Y-82009762D01*
X120523810Y-81685952D01*
X120676191Y-81685952D02*
X120923810Y-81685952D01*
X120790477Y-81838333D01*
X120847619Y-81838333D01*
X120885715Y-81857381D01*
X120904762Y-81876429D01*
X120923810Y-81914524D01*
X120923810Y-82009762D01*
X120904762Y-82047857D01*
X120885715Y-82066905D01*
X120847619Y-82085952D01*
X120733334Y-82085952D01*
X120695238Y-82066905D01*
X120676191Y-82047857D01*
M02*
